<svg xmlns="http://www.w3.org/2000/svg" xmlns:xlink="http://www.w3.org/1999/xlink" width="500" zoomAndPan="magnify" viewBox="0 0 375 374.999991" height="500" preserveAspectRatio="xMidYMid meet" version="1.0"><defs><clipPath id="77ec9f7193"><path d="M 7 105.40625 L 250.5 105.40625 L 250.5 248 L 7 248 Z M 7 105.40625 " clip-rule="nonzero"/></clipPath><clipPath id="dd283db3ed"><path d="M 123.613281 226.214844 L 168 226.214844 L 168 269.585938 L 123.613281 269.585938 Z M 123.613281 226.214844 " clip-rule="nonzero"/></clipPath><clipPath id="5cb6cf9d56"><path d="M 248.421875 105.40625 L 296 105.40625 L 296 248 L 248.421875 248 Z M 248.421875 105.40625 " clip-rule="nonzero"/></clipPath><clipPath id="b1601f4b9d"><path d="M 272.878906 135.253906 L 374.941406 135.253906 L 374.941406 244.464844 L 272.878906 244.464844 Z M 272.878906 135.253906 " clip-rule="nonzero"/></clipPath><clipPath id="ebb60fc3b3"><path d="M 296.734375 226.214844 L 341.125 226.214844 L 341.125 269.585938 L 296.734375 269.585938 Z M 296.734375 226.214844 " clip-rule="nonzero"/></clipPath><clipPath id="c36d4e6a93"><path d="M 179 138 L 248.585938 138 L 248.585938 216.414062 L 179 216.414062 Z M 179 138 " clip-rule="nonzero"/></clipPath><clipPath id="726eea7d62"><path d="M 202 130.914062 L 209 130.914062 L 209 145 L 202 145 Z M 202 130.914062 " clip-rule="nonzero"/></clipPath><clipPath id="b9f3865cf0"><path d="M 210 130.914062 L 217 130.914062 L 217 145 L 210 145 Z M 210 130.914062 " clip-rule="nonzero"/></clipPath><clipPath id="c8efae0e33"><path d="M 198 130.914062 L 221 130.914062 L 221 137 L 198 137 Z M 198 130.914062 " clip-rule="nonzero"/></clipPath><clipPath id="d70acd825c"><path d="M 166.835938 172 L 197 172 L 197 179 L 166.835938 179 Z M 166.835938 172 " clip-rule="nonzero"/></clipPath></defs><g clip-path="url(#77ec9f7193)"><path fill="#ff6f3c" d="M 332.253906 114.496094 L 305.980469 238.042969 C 304.921875 243.042969 299.988281 247.117188 294.984375 247.117188 L 174.09375 247.117188 C 172.464844 247.117188 171.339844 245.863281 171.550781 244.25 C 173.214844 231.5625 164.515625 221.609375 151.746094 221.609375 C 139.007812 221.609375 126.089844 231.527344 122.328125 244.203125 C 121.855469 245.832031 120.175781 247.117188 118.515625 247.117188 L 103.5625 247.117188 C 98.546875 247.117188 95.339844 243.042969 96.398438 238.042969 L 98.449219 228.386719 L 15.71875 228.386719 C 11.222656 228.386719 7.574219 224.734375 7.574219 220.242188 C 7.574219 215.746094 11.222656 212.097656 15.71875 212.097656 L 122.929688 212.097656 C 127.425781 212.097656 131.074219 208.449219 131.074219 203.953125 C 131.074219 199.457031 127.425781 195.808594 122.929688 195.808594 L 63.070312 195.808594 C 58.574219 195.808594 54.925781 192.160156 54.925781 187.664062 C 54.925781 183.167969 58.574219 179.519531 63.070312 179.519531 L 129.851562 179.519531 C 134.347656 179.519531 137.996094 175.871094 137.996094 171.375 C 137.996094 166.878906 134.347656 163.230469 129.851562 163.230469 L 35.332031 163.230469 C 30.835938 163.230469 27.1875 159.582031 27.1875 155.085938 C 27.1875 150.589844 30.835938 146.941406 35.332031 146.941406 L 136.777344 146.941406 C 141.269531 146.941406 144.921875 143.292969 144.921875 138.796875 C 144.921875 134.304688 141.269531 130.652344 136.777344 130.652344 L 63.070312 130.652344 C 58.574219 130.652344 54.925781 127.003906 54.925781 122.511719 C 54.925781 118.015625 58.574219 114.367188 63.070312 114.367188 L 122.703125 114.367188 C 123.8125 109.414062 128.730469 105.40625 133.683594 105.40625 L 325.089844 105.40625 C 330.105469 105.40625 333.3125 109.480469 332.253906 114.496094 " fill-opacity="1" fill-rule="nonzero"/></g><g clip-path="url(#dd283db3ed)"><path fill="#ff6f3c" d="M 143.535156 258.777344 C 137.550781 258.777344 133.722656 253.914062 134.992188 247.929688 C 136.261719 241.949219 142.164062 237.085938 148.144531 237.085938 C 154.125 237.085938 157.957031 241.949219 156.6875 247.929688 C 155.414062 253.914062 149.515625 258.777344 143.535156 258.777344 Z M 150.441406 226.277344 C 138.5 226.277344 126.722656 235.992188 124.183594 247.929688 C 121.644531 259.871094 129.296875 269.585938 141.238281 269.585938 C 153.175781 269.585938 164.957031 259.871094 167.496094 247.929688 C 170.03125 235.992188 162.382812 226.277344 150.441406 226.277344 " fill-opacity="1" fill-rule="nonzero"/></g><path fill="#ff6f3c" d="M 42.675781 122.507812 C 42.675781 127.003906 39.027344 130.652344 34.53125 130.652344 L 19.5 130.652344 C 15.003906 130.652344 11.355469 127.003906 11.355469 122.507812 C 11.355469 118.011719 15.003906 114.363281 19.5 114.363281 L 34.53125 114.363281 C 39.027344 114.363281 42.675781 118.011719 42.675781 122.507812 " fill-opacity="1" fill-rule="nonzero"/><path fill="#ff6f3c" d="M 31.390625 187.664062 C 31.390625 192.160156 27.742188 195.808594 23.246094 195.808594 L 8.195312 195.808594 C 3.699219 195.808594 0.0507812 192.160156 0.0507812 187.664062 C 0.0507812 183.167969 3.699219 179.519531 8.195312 179.519531 L 23.246094 179.519531 C 27.742188 179.519531 31.390625 183.167969 31.390625 187.664062 " fill-opacity="1" fill-rule="nonzero"/><g clip-path="url(#5cb6cf9d56)"><path fill="#ff6f3c" d="M 295.789062 114.496094 L 269.515625 238.042969 C 268.457031 243.042969 263.523438 247.117188 258.519531 247.117188 L 137.628906 247.117188 C 136 247.117188 134.875 245.863281 135.085938 244.25 C 136.75 231.5625 128.050781 221.609375 115.28125 221.609375 C 102.542969 221.609375 89.625 231.527344 85.863281 244.203125 C 85.390625 245.832031 83.710938 247.117188 82.050781 247.117188 L 67.097656 247.117188 C 62.082031 247.117188 58.875 243.042969 59.929688 238.042969 L 61.984375 228.386719 L -20.746094 228.386719 C -25.242188 228.386719 -28.890625 224.734375 -28.890625 220.242188 C -28.890625 215.746094 -25.242188 212.097656 -20.746094 212.097656 L 86.464844 212.097656 C 90.960938 212.097656 94.609375 208.449219 94.609375 203.953125 C 94.609375 199.457031 90.960938 195.808594 86.464844 195.808594 L 26.605469 195.808594 C 22.109375 195.808594 18.460938 192.160156 18.460938 187.664062 C 18.460938 183.167969 22.109375 179.519531 26.605469 179.519531 L 93.386719 179.519531 C 97.882812 179.519531 101.53125 175.871094 101.53125 171.375 C 101.53125 166.878906 97.882812 163.230469 93.386719 163.230469 L -1.132812 163.230469 C -5.628906 163.230469 -9.277344 159.582031 -9.277344 155.085938 C -9.277344 150.589844 -5.628906 146.941406 -1.132812 146.941406 L 100.3125 146.941406 C 104.804688 146.941406 108.457031 143.292969 108.457031 138.796875 C 108.457031 134.304688 104.804688 130.652344 100.3125 130.652344 L 26.605469 130.652344 C 22.109375 130.652344 18.460938 127.003906 18.460938 122.511719 C 18.460938 118.015625 22.109375 114.367188 26.605469 114.367188 L 86.238281 114.367188 C 87.34375 109.414062 92.265625 105.40625 97.214844 105.40625 L 288.625 105.40625 C 293.640625 105.40625 296.847656 109.480469 295.789062 114.496094 " fill-opacity="1" fill-rule="nonzero"/></g><g clip-path="url(#b1601f4b9d)"><path fill="#ff6f3c" d="M 371.117188 183.183594 L 367.1875 179.417969 C 366.492188 178.761719 365.875 177.988281 365.34375 177.113281 L 342.25 139.175781 C 340.738281 136.699219 338.027344 135.28125 334.808594 135.28125 L 298.957031 135.28125 C 296.863281 135.28125 294.800781 136.984375 294.351562 139.074219 L 273.050781 239.316406 C 272.449219 242.125 274.253906 244.414062 277.0625 244.414062 L 295.371094 244.414062 L 295.601562 243.683594 C 299.605469 231.097656 312.183594 221.609375 324.863281 221.609375 C 337.539062 221.609375 346.085938 231.097656 344.738281 243.683594 L 344.660156 244.414062 L 353.570312 244.414062 C 359.472656 244.414062 365.292969 239.613281 366.546875 233.710938 L 374.574219 195.9375 C 375.636719 190.941406 374.375 186.292969 371.117188 183.183594 " fill-opacity="1" fill-rule="nonzero"/></g><g clip-path="url(#ebb60fc3b3)"><path fill="#ff6f3c" d="M 316.648438 258.777344 C 310.667969 258.777344 306.835938 253.914062 308.105469 247.929688 C 309.378906 241.949219 315.277344 237.082031 321.257812 237.082031 C 327.242188 237.082031 331.074219 241.949219 329.804688 247.929688 C 328.53125 253.914062 322.628906 258.777344 316.648438 258.777344 Z M 323.558594 226.277344 C 311.617188 226.277344 299.839844 235.992188 297.296875 247.929688 C 294.761719 259.871094 302.410156 269.585938 314.351562 269.585938 C 326.292969 269.585938 338.070312 259.871094 340.609375 247.929688 C 343.148438 235.992188 335.5 226.277344 323.558594 226.277344 " fill-opacity="1" fill-rule="nonzero"/></g><path fill="#1e3a8a" d="M 330.039062 145.046875 L 309.148438 145.046875 C 305.675781 145.046875 302.261719 147.863281 301.519531 151.335938 L 295.769531 178.394531 C 295.03125 181.867188 297.246094 184.683594 300.722656 184.683594 L 339.394531 184.683594 C 344.398438 184.683594 348.582031 179.121094 346.722656 174.941406 L 334.691406 147.882812 C 333.90625 146.113281 332.15625 145.046875 330.039062 145.046875 " fill-opacity="1" fill-rule="nonzero"/><g clip-path="url(#c36d4e6a93)"><path fill="#1e3a8a" d="M 188.820312 151.90625 C 194.453125 147.351562 201.617188 144.621094 209.414062 144.621094 C 227.507812 144.621094 242.195312 159.3125 242.195312 177.402344 C 242.195312 195.492188 227.507812 210.183594 209.414062 210.183594 C 199.714844 210.183594 190.996094 205.960938 184.992188 199.257812 C 183.894531 198.027344 182.007812 197.925781 180.78125 199.023438 C 179.554688 200.117188 179.453125 202.007812 180.546875 203.230469 C 187.644531 211.15625 197.953125 216.144531 209.414062 216.144531 C 230.796875 216.144531 248.15625 198.785156 248.15625 177.402344 C 248.15625 156.019531 230.796875 138.660156 209.414062 138.660156 C 200.199219 138.660156 191.726562 141.886719 185.074219 147.273438 C 183.796875 148.304688 183.597656 150.183594 184.628906 151.464844 C 185.667969 152.742188 187.542969 152.9375 188.820312 151.90625 Z M 188.820312 151.90625 " fill-opacity="1" fill-rule="evenodd"/></g><g clip-path="url(#726eea7d62)"><path fill="#1e3a8a" d="M 208.421875 141.640625 L 208.421875 133.695312 C 208.421875 132.050781 207.085938 130.714844 205.441406 130.714844 C 203.796875 130.714844 202.460938 132.050781 202.460938 133.695312 L 202.460938 141.640625 C 202.460938 143.285156 203.796875 144.621094 205.441406 144.621094 C 207.085938 144.621094 208.421875 143.285156 208.421875 141.640625 Z M 208.421875 141.640625 " fill-opacity="1" fill-rule="evenodd"/></g><g clip-path="url(#b9f3865cf0)"><path fill="#1e3a8a" d="M 216.371094 141.640625 L 216.371094 133.695312 C 216.371094 132.050781 215.035156 130.714844 213.390625 130.714844 C 211.746094 130.714844 210.410156 132.050781 210.410156 133.695312 L 210.410156 141.640625 C 210.410156 143.285156 211.746094 144.621094 213.390625 144.621094 C 215.035156 144.621094 216.371094 143.285156 216.371094 141.640625 Z M 216.371094 141.640625 " fill-opacity="1" fill-rule="evenodd"/></g><path fill="#1e3a8a" d="M 235.363281 151.695312 L 240.984375 146.074219 C 242.144531 144.910156 242.144531 143.023438 240.984375 141.859375 C 239.820312 140.699219 237.933594 140.699219 236.769531 141.859375 L 231.152344 147.480469 C 229.988281 148.640625 229.988281 150.535156 231.152344 151.695312 C 232.3125 152.859375 234.203125 152.859375 235.363281 151.695312 Z M 235.363281 151.695312 " fill-opacity="1" fill-rule="evenodd"/><path fill="#1e3a8a" d="M 245.296875 145.496094 L 237.347656 137.546875 C 236.1875 136.382812 234.296875 136.382812 233.136719 137.546875 C 231.972656 138.707031 231.972656 140.601562 233.136719 141.761719 L 241.085938 149.707031 C 242.246094 150.871094 244.136719 150.871094 245.296875 149.707031 C 246.460938 148.546875 246.460938 146.65625 245.296875 145.496094 Z M 245.296875 145.496094 " fill-opacity="1" fill-rule="evenodd"/><g clip-path="url(#c8efae0e33)"><path fill="#1e3a8a" d="M 201.46875 136.675781 L 217.363281 136.675781 C 219.007812 136.675781 220.34375 135.339844 220.34375 133.695312 C 220.34375 132.050781 219.007812 130.714844 217.363281 130.714844 L 201.46875 130.714844 C 199.824219 130.714844 198.488281 132.050781 198.488281 133.695312 C 198.488281 135.339844 199.824219 136.675781 201.46875 136.675781 Z M 201.46875 136.675781 " fill-opacity="1" fill-rule="evenodd"/></g><path fill="#1e3a8a" d="M 206.4375 155.546875 L 206.4375 175.414062 C 206.4375 176.207031 206.75 176.964844 207.308594 177.523438 L 219.230469 189.441406 C 220.390625 190.605469 222.28125 190.605469 223.441406 189.441406 C 224.605469 188.28125 224.605469 186.390625 223.441406 185.230469 L 212.394531 174.179688 C 212.394531 174.179688 212.394531 155.546875 212.394531 155.546875 C 212.394531 153.902344 211.0625 152.566406 209.414062 152.566406 C 207.769531 152.566406 206.4375 153.902344 206.4375 155.546875 Z M 206.4375 155.546875 " fill-opacity="1" fill-rule="evenodd"/><g clip-path="url(#d70acd825c)"><path fill="#1e3a8a" d="M 169.679688 178.394531 L 193.523438 178.394531 C 195.167969 178.394531 196.503906 177.0625 196.503906 175.414062 C 196.503906 173.769531 195.167969 172.4375 193.523438 172.4375 L 169.679688 172.4375 C 168.035156 172.4375 166.699219 173.769531 166.699219 175.414062 C 166.699219 177.0625 168.035156 178.394531 169.679688 178.394531 Z M 169.679688 178.394531 " fill-opacity="1" fill-rule="evenodd"/></g><path fill="#1e3a8a" d="M 181.601562 164.488281 L 193.523438 164.488281 C 195.167969 164.488281 196.503906 163.152344 196.503906 161.507812 C 196.503906 159.863281 195.167969 158.527344 193.523438 158.527344 L 181.601562 158.527344 C 179.957031 158.527344 178.621094 159.863281 178.621094 161.507812 C 178.621094 163.152344 179.957031 164.488281 181.601562 164.488281 Z M 181.601562 164.488281 " fill-opacity="1" fill-rule="evenodd"/><path fill="#1e3a8a" d="M 181.601562 192.304688 L 193.523438 192.304688 C 195.167969 192.304688 196.503906 190.96875 196.503906 189.324219 C 196.503906 187.679688 195.167969 186.34375 193.523438 186.34375 L 181.601562 186.34375 C 179.957031 186.34375 178.621094 187.679688 178.621094 189.324219 C 178.621094 190.96875 179.957031 192.304688 181.601562 192.304688 Z M 181.601562 192.304688 " fill-opacity="1" fill-rule="evenodd"/></svg>