<svg xmlns="http://www.w3.org/2000/svg" xmlns:xlink="http://www.w3.org/1999/xlink" width="1000" zoomAndPan="magnify" viewBox="0 0 750 225" height="300" preserveAspectRatio="xMidYMid meet" version="1.0"><defs><g/><clipPath id="128b907d63"><path d="M 326 17.847656 L 606.386719 17.847656 L 606.386719 182 L 326 182 Z M 326 17.847656 " clip-rule="nonzero"/></clipPath><clipPath id="dc2a2f1d29"><path d="M 460.164062 157.136719 L 511.339844 157.136719 L 511.339844 206.847656 L 460.164062 206.847656 Z M 460.164062 157.136719 " clip-rule="nonzero"/></clipPath><clipPath id="83d647aaa9"><path d="M 317.636719 103 L 354 103 L 354 123 L 317.636719 123 Z M 317.636719 103 " clip-rule="nonzero"/></clipPath><clipPath id="f1ce0990c0"><path d="M 604.058594 17.847656 L 659 17.847656 L 659 182 L 604.058594 182 Z M 604.058594 17.847656 " clip-rule="nonzero"/></clipPath><clipPath id="e05558fadc"><path d="M 632.257812 52.261719 L 749.933594 52.261719 L 749.933594 178.175781 L 632.257812 178.175781 Z M 632.257812 52.261719 " clip-rule="nonzero"/></clipPath><clipPath id="1f6f4e3803"><path d="M 659.761719 157.136719 L 710.941406 157.136719 L 710.941406 206.847656 L 659.761719 206.847656 Z M 659.761719 157.136719 " clip-rule="nonzero"/></clipPath><clipPath id="0444c06381"><path d="M 111.445312 150.007812 L 148.097656 150.007812 L 148.097656 168.332031 L 111.445312 168.332031 Z M 111.445312 150.007812 " clip-rule="nonzero"/></clipPath><clipPath id="754246c998"><path d="M 138.933594 150.007812 C 143.992188 150.007812 148.097656 154.109375 148.097656 159.171875 C 148.097656 164.230469 143.992188 168.332031 138.933594 168.332031 L 120.609375 168.332031 C 115.546875 168.332031 111.445312 164.230469 111.445312 159.171875 C 111.445312 154.109375 115.546875 150.007812 120.609375 150.007812 Z M 138.933594 150.007812 " clip-rule="nonzero"/></clipPath><clipPath id="f0f4ffc935"><path d="M 2.105469 103.335938 L 38.753906 103.335938 L 38.753906 121.664062 L 2.105469 121.664062 Z M 2.105469 103.335938 " clip-rule="nonzero"/></clipPath><clipPath id="bc0146c2bd"><path d="M 29.59375 103.335938 C 34.652344 103.335938 38.753906 107.441406 38.753906 112.5 C 38.753906 117.558594 34.652344 121.664062 29.59375 121.664062 L 11.269531 121.664062 C 6.207031 121.664062 2.105469 117.558594 2.105469 112.5 C 2.105469 107.441406 6.207031 103.335938 11.269531 103.335938 Z M 29.59375 103.335938 " clip-rule="nonzero"/></clipPath><clipPath id="c336f37578"><path d="M 76.433594 102.148438 L 111.445312 102.148438 L 111.445312 119.65625 L 76.433594 119.65625 Z M 76.433594 102.148438 " clip-rule="nonzero"/></clipPath><clipPath id="cf7ecc66d7"><path d="M 102.695312 102.148438 C 107.527344 102.148438 111.445312 106.066406 111.445312 110.902344 C 111.445312 115.738281 107.527344 119.65625 102.695312 119.65625 L 85.1875 119.65625 C 80.355469 119.65625 76.433594 115.738281 76.433594 110.902344 C 76.433594 106.066406 80.355469 102.148438 85.1875 102.148438 Z M 102.695312 102.148438 " clip-rule="nonzero"/></clipPath><clipPath id="b6732bd2aa"><path d="M 58.929688 102.148438 L 93.941406 102.148438 L 93.941406 119.65625 L 58.929688 119.65625 Z M 58.929688 102.148438 " clip-rule="nonzero"/></clipPath><clipPath id="1697dd780e"><path d="M 85.1875 102.148438 C 90.023438 102.148438 93.941406 106.066406 93.941406 110.902344 C 93.941406 115.738281 90.023438 119.65625 85.1875 119.65625 L 67.683594 119.65625 C 62.847656 119.65625 58.929688 115.738281 58.929688 110.902344 C 58.929688 106.066406 62.847656 102.148438 67.683594 102.148438 Z M 85.1875 102.148438 " clip-rule="nonzero"/></clipPath><clipPath id="6314c9bec6"><path d="M 111.445312 125.160156 L 146.457031 125.160156 L 146.457031 142.667969 L 111.445312 142.667969 Z M 111.445312 125.160156 " clip-rule="nonzero"/></clipPath><clipPath id="0e91795527"><path d="M 137.703125 125.160156 C 142.539062 125.160156 146.457031 129.078125 146.457031 133.914062 C 146.457031 138.746094 142.539062 142.667969 137.703125 142.667969 L 120.199219 142.667969 C 115.367188 142.667969 111.445312 138.746094 111.445312 133.914062 C 111.445312 129.078125 115.367188 125.160156 120.199219 125.160156 Z M 137.703125 125.160156 " clip-rule="nonzero"/></clipPath><clipPath id="163e09f673"><path d="M 524 54 L 603.742188 54 L 603.742188 143.910156 L 524 143.910156 Z M 524 54 " clip-rule="nonzero"/></clipPath><clipPath id="0c07cf96f9"><path d="M 551 45.660156 L 558 45.660156 L 558 62 L 551 62 Z M 551 45.660156 " clip-rule="nonzero"/></clipPath><clipPath id="8cbfbc1b88"><path d="M 560 45.660156 L 568 45.660156 L 568 62 L 560 62 Z M 560 45.660156 " clip-rule="nonzero"/></clipPath><clipPath id="3ba9be4898"><path d="M 546 45.660156 L 572 45.660156 L 572 53 L 546 53 Z M 546 45.660156 " clip-rule="nonzero"/></clipPath><clipPath id="c108d2c974"><path d="M 509.992188 93 L 545 93 L 545 101 L 509.992188 101 Z M 509.992188 93 " clip-rule="nonzero"/></clipPath></defs><g clip-path="url(#128b907d63)"><path fill="#ff6f3c" d="M 700.714844 28.328125 L 670.425781 170.773438 C 669.203125 176.539062 663.511719 181.234375 657.746094 181.234375 L 518.359375 181.234375 C 516.484375 181.234375 515.1875 179.789062 515.433594 177.929688 C 517.347656 163.300781 507.320312 151.824219 492.59375 151.824219 C 477.910156 151.824219 463.015625 163.261719 458.679688 177.875 C 458.132812 179.753906 456.199219 181.234375 454.285156 181.234375 L 437.042969 181.234375 C 431.257812 181.234375 427.558594 176.539062 428.78125 170.773438 L 431.148438 159.636719 L 335.761719 159.636719 C 330.578125 159.636719 326.375 155.429688 326.375 150.25 C 326.375 145.066406 330.578125 140.859375 335.761719 140.859375 L 459.371094 140.859375 C 464.554688 140.859375 468.765625 136.652344 468.765625 131.46875 C 468.765625 126.285156 464.554688 122.078125 459.371094 122.078125 L 390.355469 122.078125 C 385.171875 122.078125 380.964844 117.871094 380.964844 112.6875 C 380.964844 107.503906 385.171875 103.296875 390.355469 103.296875 L 467.355469 103.296875 C 472.539062 103.296875 476.746094 99.089844 476.746094 93.910156 C 476.746094 88.726562 472.539062 84.519531 467.355469 84.519531 L 358.375 84.519531 C 353.191406 84.519531 348.984375 80.3125 348.984375 75.128906 C 348.984375 69.945312 353.191406 65.738281 358.375 65.738281 L 475.335938 65.738281 C 480.519531 65.738281 484.726562 61.53125 484.726562 56.347656 C 484.726562 51.164062 480.519531 46.957031 475.335938 46.957031 L 390.355469 46.957031 C 385.171875 46.957031 380.964844 42.75 380.964844 37.570312 C 380.964844 32.386719 385.171875 28.179688 390.355469 28.179688 L 459.113281 28.179688 C 460.386719 22.46875 466.058594 17.847656 471.769531 17.847656 L 692.453125 17.847656 C 698.238281 17.847656 701.9375 22.542969 700.714844 28.328125 " fill-opacity="1" fill-rule="nonzero"/></g><g clip-path="url(#dc2a2f1d29)"><path fill="#ff6f3c" d="M 483.128906 194.683594 C 476.230469 194.683594 471.816406 189.070312 473.277344 182.175781 C 474.746094 175.277344 481.546875 169.667969 488.445312 169.667969 C 495.339844 169.667969 499.757812 175.277344 498.292969 182.175781 C 496.828125 189.070312 490.023438 194.683594 483.128906 194.683594 Z M 491.09375 157.207031 C 477.328125 157.207031 463.746094 168.40625 460.816406 182.175781 C 457.894531 195.941406 466.710938 207.144531 480.480469 207.144531 C 494.246094 207.144531 507.828125 195.941406 510.753906 182.175781 C 513.679688 168.40625 504.863281 157.207031 491.09375 157.207031 " fill-opacity="1" fill-rule="nonzero"/></g><path fill="#ff6f3c" d="M 366.84375 37.566406 C 366.84375 42.75 362.636719 46.957031 357.453125 46.957031 L 340.121094 46.957031 C 334.9375 46.957031 330.730469 42.75 330.730469 37.566406 C 330.730469 32.382812 334.9375 28.175781 340.121094 28.175781 L 357.453125 28.175781 C 362.636719 28.175781 366.84375 32.382812 366.84375 37.566406 " fill-opacity="1" fill-rule="nonzero"/><g clip-path="url(#83d647aaa9)"><path fill="#ff6f3c" d="M 353.828125 112.6875 C 353.828125 117.871094 349.621094 122.078125 344.4375 122.078125 L 327.085938 122.078125 C 321.902344 122.078125 317.695312 117.871094 317.695312 112.6875 C 317.695312 107.503906 321.902344 103.296875 327.085938 103.296875 L 344.4375 103.296875 C 349.621094 103.296875 353.828125 107.503906 353.828125 112.6875 " fill-opacity="1" fill-rule="nonzero"/></g><g clip-path="url(#f1ce0990c0)"><path fill="#ff6f3c" d="M 658.671875 28.328125 L 628.382812 170.773438 C 627.160156 176.539062 621.46875 181.234375 615.703125 181.234375 L 476.316406 181.234375 C 474.441406 181.234375 473.144531 179.789062 473.390625 177.929688 C 475.304688 163.300781 465.277344 151.824219 450.550781 151.824219 C 435.867188 151.824219 420.972656 163.261719 416.636719 177.875 C 416.089844 179.753906 414.15625 181.234375 412.242188 181.234375 L 395 181.234375 C 389.214844 181.234375 385.515625 176.539062 386.738281 170.773438 L 389.105469 159.636719 L 293.71875 159.636719 C 288.535156 159.636719 284.332031 155.429688 284.332031 150.25 C 284.332031 145.066406 288.535156 140.859375 293.71875 140.859375 L 417.328125 140.859375 C 422.511719 140.859375 426.722656 136.652344 426.722656 131.46875 C 426.722656 126.285156 422.511719 122.078125 417.328125 122.078125 L 348.3125 122.078125 C 343.128906 122.078125 338.921875 117.871094 338.921875 112.6875 C 338.921875 107.503906 343.128906 103.296875 348.3125 103.296875 L 425.3125 103.296875 C 430.496094 103.296875 434.703125 99.089844 434.703125 93.910156 C 434.703125 88.726562 430.496094 84.519531 425.3125 84.519531 L 316.332031 84.519531 C 311.148438 84.519531 306.941406 80.3125 306.941406 75.128906 C 306.941406 69.945312 311.148438 65.738281 316.332031 65.738281 L 433.292969 65.738281 C 438.476562 65.738281 442.683594 61.53125 442.683594 56.347656 C 442.683594 51.164062 438.476562 46.957031 433.292969 46.957031 L 348.3125 46.957031 C 343.128906 46.957031 338.921875 42.75 338.921875 37.570312 C 338.921875 32.386719 343.128906 28.179688 348.3125 28.179688 L 417.066406 28.179688 C 418.34375 22.46875 424.015625 17.847656 429.726562 17.847656 L 650.410156 17.847656 C 656.195312 17.847656 659.894531 22.542969 658.671875 28.328125 " fill-opacity="1" fill-rule="nonzero"/></g><g clip-path="url(#e05558fadc)"><path fill="#ff6f3c" d="M 745.519531 107.523438 L 740.992188 103.179688 C 740.191406 102.425781 739.476562 101.53125 738.867188 100.523438 L 712.238281 56.785156 C 710.496094 53.929688 707.371094 52.292969 703.660156 52.292969 L 662.324219 52.292969 C 659.910156 52.292969 657.53125 54.253906 657.015625 56.667969 L 632.453125 172.238281 C 631.765625 175.480469 633.839844 178.117188 637.082031 178.117188 L 658.191406 178.117188 L 658.457031 177.277344 C 663.074219 162.765625 677.574219 151.824219 692.191406 151.824219 C 706.8125 151.824219 716.664062 162.765625 715.109375 177.277344 L 715.019531 178.117188 L 725.289062 178.117188 C 732.097656 178.117188 738.804688 172.582031 740.25 165.777344 L 749.511719 122.230469 C 750.730469 116.46875 749.28125 111.105469 745.519531 107.523438 " fill-opacity="1" fill-rule="nonzero"/></g><g clip-path="url(#1f6f4e3803)"><path fill="#ff6f3c" d="M 682.722656 194.683594 C 675.828125 194.683594 671.410156 189.070312 672.875 182.175781 C 674.339844 175.277344 681.144531 169.667969 688.039062 169.667969 C 694.9375 169.667969 699.355469 175.277344 697.890625 182.175781 C 696.421875 189.070312 689.621094 194.683594 682.722656 194.683594 Z M 690.6875 157.207031 C 676.921875 157.207031 663.339844 168.40625 660.410156 182.175781 C 657.488281 195.941406 666.308594 207.144531 680.074219 207.144531 C 693.839844 207.144531 707.421875 195.941406 710.347656 182.175781 C 713.277344 168.40625 704.457031 157.207031 690.6875 157.207031 " fill-opacity="1" fill-rule="nonzero"/></g><path fill="#1e3a8a" d="M 698.160156 63.550781 L 674.074219 63.550781 C 670.070312 63.550781 666.132812 66.800781 665.28125 70.804688 L 658.648438 102 C 657.800781 106.003906 660.355469 109.25 664.359375 109.25 L 708.949219 109.25 C 714.714844 109.25 719.539062 102.839844 717.394531 98.019531 L 703.527344 66.820312 C 702.617188 64.78125 700.605469 63.550781 698.160156 63.550781 " fill-opacity="1" fill-rule="nonzero"/><g fill="#ff6f3c" fill-opacity="1"><g transform="translate(159.233354, 169.920485)"><g><path d="M 47.515625 -54.421875 C 47.941406 -53.085938 48.273438 -51.476562 48.515625 -49.59375 C 48.753906 -47.71875 48.875 -45.601562 48.875 -43.25 C 48.875 -38.644531 48.3125 -34.894531 47.1875 -32 C 46.0625 -29.101562 44.828125 -26.851562 43.484375 -25.25 C 41.234375 -22.5625 38.316406 -21.21875 34.734375 -21.21875 L 23.546875 -21.21875 L 23.546875 -6.515625 C 23.546875 -4.742188 22.929688 -3.238281 21.703125 -2 C 20.472656 -0.769531 19 -0.15625 17.28125 -0.15625 L 8.921875 -0.15625 C 7.203125 -0.15625 5.726562 -0.769531 4.5 -2 C 3.269531 -3.238281 2.65625 -4.742188 2.65625 -6.515625 L 2.65625 -57.796875 C 2.65625 -59.515625 3.269531 -61.003906 4.5 -62.265625 C 5.726562 -63.523438 7.203125 -64.15625 8.921875 -64.15625 L 34.40625 -64.15625 C 37.40625 -64.15625 40.125 -63.253906 42.5625 -61.453125 C 45 -59.660156 46.648438 -57.316406 47.515625 -54.421875 Z M 30.875 -43.40625 C 30.875 -44.695312 30.414062 -45.820312 29.5 -46.78125 C 28.59375 -47.75 27.46875 -48.234375 26.125 -48.234375 L 24.59375 -48.234375 C 24.28125 -48.234375 24.023438 -48.113281 23.828125 -47.875 C 23.640625 -47.632812 23.546875 -47.378906 23.546875 -47.109375 L 23.546875 -38.421875 C 23.546875 -37.785156 23.894531 -37.46875 24.59375 -37.46875 L 26.125 -37.46875 C 27.46875 -37.46875 28.59375 -37.9375 29.5 -38.875 C 30.414062 -39.8125 30.875 -40.945312 30.875 -42.28125 Z M 30.875 -43.40625 "/></g></g></g><g fill="#ff6f3c" fill-opacity="1"><g transform="translate(209.47211, 169.920485)"><g><path d="M 27.578125 -65.28125 C 30.953125 -65.28125 34.207031 -64.660156 37.34375 -63.421875 C 40.476562 -62.191406 43.273438 -60.488281 45.734375 -58.3125 C 48.203125 -56.144531 50.160156 -53.613281 51.609375 -50.71875 C 53.054688 -47.832031 53.78125 -44.726562 53.78125 -41.40625 L 53.78125 -23.078125 C 53.78125 -19.640625 53.054688 -16.429688 51.609375 -13.453125 C 50.160156 -10.484375 48.203125 -7.882812 45.734375 -5.65625 C 43.273438 -3.4375 40.476562 -1.710938 37.34375 -0.484375 C 34.207031 0.742188 30.953125 1.359375 27.578125 1.359375 C 24.304688 1.359375 21.101562 0.742188 17.96875 -0.484375 C 14.832031 -1.710938 12.015625 -3.4375 9.515625 -5.65625 C 7.023438 -7.882812 5.039062 -10.484375 3.5625 -13.453125 C 2.09375 -16.429688 1.359375 -19.640625 1.359375 -23.078125 L 1.359375 -41.40625 C 1.359375 -44.726562 2.09375 -47.832031 3.5625 -50.71875 C 5.039062 -53.613281 7.023438 -56.144531 9.515625 -58.3125 C 12.015625 -60.488281 14.832031 -62.191406 17.96875 -63.421875 C 21.101562 -64.660156 24.304688 -65.28125 27.578125 -65.28125 Z M 32.953125 -23.875 L 32.953125 -39.953125 C 32.953125 -41.398438 32.414062 -42.644531 31.34375 -43.6875 C 30.28125 -44.738281 29.023438 -45.265625 27.578125 -45.265625 C 26.078125 -45.265625 24.816406 -44.738281 23.796875 -43.6875 C 22.773438 -42.644531 22.265625 -41.398438 22.265625 -39.953125 L 22.265625 -23.875 C 22.265625 -22.53125 22.773438 -21.335938 23.796875 -20.296875 C 24.816406 -19.253906 26.078125 -18.734375 27.578125 -18.734375 C 29.023438 -18.734375 30.28125 -19.253906 31.34375 -20.296875 C 32.414062 -21.335938 32.953125 -22.53125 32.953125 -23.875 Z M 32.953125 -23.875 "/></g></g></g><g fill="#ff6f3c" fill-opacity="1"><g transform="translate(264.614171, 169.920485)"><g><path d="M 47.515625 -54.421875 C 47.941406 -53.085938 48.273438 -51.476562 48.515625 -49.59375 C 48.753906 -47.71875 48.875 -45.601562 48.875 -43.25 C 48.875 -38.644531 48.3125 -34.894531 47.1875 -32 C 46.0625 -29.101562 44.828125 -26.851562 43.484375 -25.25 C 41.234375 -22.5625 38.316406 -21.21875 34.734375 -21.21875 L 23.546875 -21.21875 L 23.546875 -6.515625 C 23.546875 -4.742188 22.929688 -3.238281 21.703125 -2 C 20.472656 -0.769531 19 -0.15625 17.28125 -0.15625 L 8.921875 -0.15625 C 7.203125 -0.15625 5.726562 -0.769531 4.5 -2 C 3.269531 -3.238281 2.65625 -4.742188 2.65625 -6.515625 L 2.65625 -57.796875 C 2.65625 -59.515625 3.269531 -61.003906 4.5 -62.265625 C 5.726562 -63.523438 7.203125 -64.15625 8.921875 -64.15625 L 34.40625 -64.15625 C 37.40625 -64.15625 40.125 -63.253906 42.5625 -61.453125 C 45 -59.660156 46.648438 -57.316406 47.515625 -54.421875 Z M 30.875 -43.40625 C 30.875 -44.695312 30.414062 -45.820312 29.5 -46.78125 C 28.59375 -47.75 27.46875 -48.234375 26.125 -48.234375 L 24.59375 -48.234375 C 24.28125 -48.234375 24.023438 -48.113281 23.828125 -47.875 C 23.640625 -47.632812 23.546875 -47.378906 23.546875 -47.109375 L 23.546875 -38.421875 C 23.546875 -37.785156 23.894531 -37.46875 24.59375 -37.46875 L 26.125 -37.46875 C 27.46875 -37.46875 28.59375 -37.9375 29.5 -38.875 C 30.414062 -39.8125 30.875 -40.945312 30.875 -42.28125 Z M 30.875 -43.40625 "/></g></g></g><path stroke-linecap="butt" transform="matrix(2.805043, 0, 0, 2.805043, 11.927972, 117.421251)" fill="none" stroke-linejoin="miter" d="M 70.440153 -1.403499 C 70.589159 -0.927237 70.706136 -0.353493 70.789691 0.317731 C 70.878816 0.984777 70.923379 1.738164 70.923379 2.57789 C 70.923379 4.225314 70.721455 5.563584 70.320391 6.594094 C 69.919328 7.625997 69.480665 8.428124 69.005795 9.001867 C 68.203668 9.958571 67.160625 10.436226 65.878057 10.436226 L 61.896668 10.436226 L 61.896668 15.676509 C 61.896668 16.307348 61.67664 16.843492 61.239369 17.286333 C 60.800706 17.724996 60.275703 17.943631 59.66436 17.943631 L 56.684236 17.943631 C 56.072893 17.943631 55.545105 17.724996 55.102264 17.286333 C 54.663601 16.843492 54.444966 16.307348 54.444966 15.676509 L 54.444966 -2.606689 C 54.444966 -3.218033 54.663601 -3.747213 55.102264 -4.194232 C 55.545105 -4.646821 56.072893 -4.873812 56.684236 -4.873812 L 65.765258 -4.873812 C 66.834761 -4.873812 67.802604 -4.552125 68.670183 -3.90736 C 69.541938 -3.268165 70.132393 -2.434009 70.440153 -1.403499 Z M 64.506365 2.522187 C 64.506365 2.06542 64.343433 1.664357 64.016176 1.318997 C 63.69449 0.973637 63.293427 0.800957 62.812986 0.800957 L 62.267094 0.800957 C 62.155688 0.800957 62.063777 0.845519 61.994148 0.934645 C 61.928697 1.018199 61.896668 1.108717 61.896668 1.20759 L 61.896668 4.299121 C 61.896668 4.528897 62.020607 4.643088 62.267094 4.643088 L 62.812986 4.643088 C 63.293427 4.643088 63.69449 4.477371 64.016176 4.145937 C 64.343433 3.810325 64.506365 3.403691 64.506365 2.928821 Z M 81.241013 -5.27209 C 82.444203 -5.27209 83.604223 -5.053455 84.718288 -4.614792 C 85.837923 -4.176128 86.836404 -3.568963 87.71373 -2.794688 C 88.595234 -2.020413 89.292917 -1.116628 89.805387 -0.0805471 C 90.323427 0.949963 90.582448 2.058458 90.582448 3.243544 L 90.582448 9.771965 C 90.582448 10.998829 90.323427 12.140745 89.805387 13.2005 C 89.292917 14.258861 88.595234 15.184928 87.71373 15.977307 C 86.836404 16.771078 85.837923 17.389384 84.718288 17.832225 C 83.604223 18.270888 82.444203 18.489523 81.241013 18.489523 C 80.075423 18.489523 78.932113 18.270888 77.812478 17.832225 C 76.697021 17.389384 75.694362 16.771078 74.80311 15.977307 C 73.917428 15.184928 73.21139 14.258861 72.683602 13.2005 C 72.161384 12.140745 71.899578 10.998829 71.899578 9.771965 L 71.899578 3.243544 C 71.899578 2.058458 72.161384 0.949963 72.683602 -0.0805471 C 73.21139 -1.116628 73.917428 -2.020413 74.80311 -2.794688 C 75.694362 -3.568963 76.697021 -4.176128 77.812478 -4.614792 C 78.932113 -5.053455 80.075423 -5.27209 81.241013 -5.27209 Z M 83.158597 9.485093 L 83.158597 3.754621 C 83.158597 3.240759 82.966421 2.797918 82.584854 2.424706 C 82.206072 2.051495 81.759053 1.864889 81.241013 1.864889 C 80.704869 1.864889 80.255065 2.051495 79.890209 2.424706 C 79.530923 2.797918 79.35128 3.240759 79.35128 3.754621 L 79.35128 9.485093 C 79.35128 9.965534 79.530923 10.391663 79.890209 10.764875 C 80.255065 11.138087 80.704869 11.324693 81.241013 11.324693 C 81.759053 11.324693 82.206072 11.138087 82.584854 10.764875 C 82.966421 10.391663 83.158597 9.965534 83.158597 9.485093 Z M 108.007816 -1.403499 C 108.158215 -0.927237 108.273799 -0.353493 108.358746 0.317731 C 108.446479 0.984777 108.491042 1.738164 108.491042 2.57789 C 108.491042 4.225314 108.29051 5.563584 107.889447 6.594094 C 107.488383 7.625997 107.04972 8.428124 106.573457 9.001867 C 105.771331 9.958571 104.728287 10.436226 103.44572 10.436226 L 99.46433 10.436226 L 99.46433 15.676509 C 99.46433 16.307348 99.245695 16.843492 98.807032 17.286333 C 98.368369 17.724996 97.843366 17.943631 97.233415 17.943631 L 94.251899 17.943631 C 93.640556 17.943631 93.11416 17.724996 92.671319 17.286333 C 92.232656 16.843492 92.012628 16.307348 92.012628 15.676509 L 92.012628 -2.606689 C 92.012628 -3.218033 92.232656 -3.747213 92.671319 -4.194232 C 93.11416 -4.646821 93.640556 -4.873812 94.251899 -4.873812 L 103.334314 -4.873812 C 104.402423 -4.873812 105.370267 -4.552125 106.237845 -3.90736 C 107.110994 -3.268165 107.700056 -2.434009 108.007816 -1.403499 Z M 102.07542 2.522187 C 102.07542 2.06542 101.911096 1.664357 101.585232 1.318997 C 101.263545 0.973637 100.862482 0.800957 100.382041 0.800957 L 99.83615 0.800957 C 99.723351 0.800957 99.632833 0.845519 99.563204 0.934645 C 99.497752 1.018199 99.46433 1.108717 99.46433 1.20759 L 99.46433 4.299121 C 99.46433 4.528897 99.58827 4.643088 99.83615 4.643088 L 100.382041 4.643088 C 100.862482 4.643088 101.263545 4.477371 101.585232 4.145937 C 101.911096 3.810325 102.07542 3.403691 102.07542 2.928821 Z M 102.07542 2.522187 " stroke="#ff6f3c" stroke-width="0.465769" stroke-opacity="1" stroke-miterlimit="4"/><g fill="#1e3a8a" fill-opacity="1"><g transform="translate(2.111297, 92.461173)"><g><path d="M 47.515625 -54.421875 C 47.941406 -53.085938 48.273438 -51.476562 48.515625 -49.59375 C 48.753906 -47.71875 48.875 -45.601562 48.875 -43.25 C 48.875 -38.644531 48.3125 -34.894531 47.1875 -32 C 46.0625 -29.101562 44.828125 -26.851562 43.484375 -25.25 C 41.234375 -22.5625 38.316406 -21.21875 34.734375 -21.21875 L 23.546875 -21.21875 L 23.546875 -6.515625 C 23.546875 -4.742188 22.929688 -3.238281 21.703125 -2 C 20.472656 -0.769531 19 -0.15625 17.28125 -0.15625 L 8.921875 -0.15625 C 7.203125 -0.15625 5.726562 -0.769531 4.5 -2 C 3.269531 -3.238281 2.65625 -4.742188 2.65625 -6.515625 L 2.65625 -57.796875 C 2.65625 -59.515625 3.269531 -61.003906 4.5 -62.265625 C 5.726562 -63.523438 7.203125 -64.15625 8.921875 -64.15625 L 34.40625 -64.15625 C 37.40625 -64.15625 40.125 -63.253906 42.5625 -61.453125 C 45 -59.660156 46.648438 -57.316406 47.515625 -54.421875 Z M 30.875 -43.40625 C 30.875 -44.695312 30.414062 -45.820312 29.5 -46.78125 C 28.59375 -47.75 27.46875 -48.234375 26.125 -48.234375 L 24.59375 -48.234375 C 24.28125 -48.234375 24.023438 -48.113281 23.828125 -47.875 C 23.640625 -47.632812 23.546875 -47.378906 23.546875 -47.109375 L 23.546875 -38.421875 C 23.546875 -37.785156 23.894531 -37.46875 24.59375 -37.46875 L 26.125 -37.46875 C 27.46875 -37.46875 28.59375 -37.9375 29.5 -38.875 C 30.414062 -39.8125 30.875 -40.945312 30.875 -42.28125 Z M 30.875 -43.40625 "/></g></g></g><g fill="#1e3a8a" fill-opacity="1"><g transform="translate(52.350053, 92.461173)"><g><path d="M 61.34375 -6.75 C 61.601562 -5.570312 61.492188 -4.40625 61.015625 -3.25 C 60.535156 -2.101562 59.757812 -1.234375 58.6875 -0.640625 C 57.988281 -0.210938 57.1875 0 56.28125 0 L 45.34375 0 C 43.84375 0 42.71875 -0.453125 41.96875 -1.359375 C 41.21875 -2.273438 40.546875 -3.484375 39.953125 -4.984375 L 37.546875 -11.25 L 25.25 -11.25 L 22.90625 -4.984375 C 22.320312 -3.484375 21.65625 -2.289062 20.90625 -1.40625 C 20.15625 -0.519531 19.03125 -0.078125 17.53125 -0.078125 L 6.59375 -0.078125 C 5.738281 -0.078125 5.039062 -0.210938 4.5 -0.484375 C 3.320312 -1.015625 2.453125 -1.882812 1.890625 -3.09375 C 1.328125 -4.300781 1.207031 -5.546875 1.53125 -6.828125 L 16 -59.96875 C 16.15625 -60.71875 16.429688 -61.332031 16.828125 -61.8125 C 17.234375 -62.300781 17.625 -62.679688 18 -62.953125 C 18.863281 -63.640625 19.910156 -63.984375 21.140625 -63.984375 L 42.203125 -63.984375 C 42.796875 -63.984375 43.4375 -63.875 44.125 -63.65625 C 44.820312 -63.445312 45.46875 -63.050781 46.0625 -62.46875 C 46.65625 -61.820312 47.046875 -61.160156 47.234375 -60.484375 C 47.421875 -59.816406 47.566406 -59.242188 47.671875 -58.765625 Z M 35.21875 -29.828125 C 35.59375 -29.828125 35.882812 -29.988281 36.09375 -30.3125 C 36.3125 -30.632812 36.363281 -30.984375 36.25 -31.359375 L 34.171875 -36.8125 L 32.484375 -41 C 32.316406 -41.53125 31.960938 -41.796875 31.421875 -41.796875 C 30.890625 -41.796875 30.546875 -41.53125 30.390625 -41 L 28.78125 -36.8125 L 26.6875 -31.359375 C 26.476562 -30.984375 26.503906 -30.632812 26.765625 -30.3125 C 27.035156 -29.988281 27.359375 -29.828125 27.734375 -29.828125 Z M 35.21875 -29.828125 "/></g></g></g><g fill="#1e3a8a" fill-opacity="1"><g transform="translate(115.208765, 92.461173)"><g><path d="M 52.65625 -6.828125 C 53.082031 -4.953125 52.742188 -3.382812 51.640625 -2.125 C 50.546875 -0.863281 49.222656 -0.234375 47.671875 -0.234375 L 34.640625 -0.234375 C 33.304688 -0.234375 31.898438 -0.796875 30.421875 -1.921875 C 28.953125 -3.054688 28.003906 -4.53125 27.578125 -6.34375 L 25.484375 -16.15625 L 24.84375 -19.453125 C 24.84375 -19.722656 24.679688 -19.859375 24.359375 -19.859375 C 24.085938 -19.859375 23.953125 -19.695312 23.953125 -19.375 L 23.953125 -5.953125 C 23.953125 -5.304688 23.910156 -4.710938 23.828125 -4.171875 C 23.753906 -3.640625 23.34375 -2.972656 22.59375 -2.171875 C 22.050781 -1.523438 21.40625 -1.039062 20.65625 -0.71875 C 19.90625 -0.394531 19.128906 -0.234375 18.328125 -0.234375 L 8.046875 -0.234375 C 6.484375 -0.234375 5.148438 -0.78125 4.046875 -1.875 C 2.953125 -2.976562 2.40625 -4.28125 2.40625 -5.78125 L 2.40625 -57 C 2.40625 -59.300781 2.953125 -61.066406 4.046875 -62.296875 C 5.148438 -63.535156 6.484375 -64.15625 8.046875 -64.15625 L 37.0625 -64.234375 C 40.007812 -64.234375 42.675781 -63.414062 45.0625 -61.78125 C 47.445312 -60.144531 49.347656 -57.835938 50.765625 -54.859375 C 52.179688 -51.890625 52.890625 -48.34375 52.890625 -44.21875 C 52.890625 -40.726562 52.367188 -37.65625 51.328125 -35 C 50.285156 -32.351562 48.878906 -29.984375 47.109375 -27.890625 C 47.328125 -27.566406 47.515625 -27.0625 47.671875 -26.375 Z M 31.265625 -42.125 C 31.265625 -43.46875 30.796875 -44.609375 29.859375 -45.546875 C 28.921875 -46.484375 27.8125 -46.953125 26.53125 -46.953125 L 25 -46.953125 C 24.300781 -46.953125 23.953125 -46.601562 23.953125 -45.90625 L 23.953125 -37.296875 C 23.953125 -36.597656 24.300781 -36.25 25 -36.25 L 26.53125 -36.25 C 27.8125 -36.25 28.921875 -36.71875 29.859375 -37.65625 C 30.796875 -38.59375 31.265625 -39.707031 31.265625 -41 Z M 31.265625 -42.125 "/></g></g></g><g fill="#1e3a8a" fill-opacity="1"><g transform="translate(170.752732, 92.461173)"><g><path d="M 34.078125 -25.484375 L 52.421875 -25.484375 C 52.679688 -25.484375 52.929688 -25.363281 53.171875 -25.125 C 53.421875 -24.882812 53.546875 -24.628906 53.546875 -24.359375 L 53.546875 -23.390625 C 53.546875 -19.960938 52.820312 -16.773438 51.375 -13.828125 C 49.925781 -10.878906 47.984375 -8.289062 45.546875 -6.0625 C 43.109375 -3.84375 40.332031 -2.113281 37.21875 -0.875 C 34.113281 0.351562 30.875 0.96875 27.5 0.96875 C 24.226562 0.96875 21.023438 0.351562 17.890625 -0.875 C 14.753906 -2.113281 11.953125 -3.84375 9.484375 -6.0625 C 7.015625 -8.289062 5.039062 -10.878906 3.5625 -13.828125 C 2.09375 -16.773438 1.359375 -19.960938 1.359375 -23.390625 L 1.359375 -41.5625 C 1.359375 -44.882812 2.09375 -47.976562 3.5625 -50.84375 C 5.039062 -53.707031 7.015625 -56.222656 9.484375 -58.390625 C 11.953125 -60.566406 14.753906 -62.269531 17.890625 -63.5 C 21.023438 -64.738281 24.226562 -65.359375 27.5 -65.359375 C 30.875 -65.359375 34.113281 -64.738281 37.21875 -63.5 C 40.332031 -62.269531 43.109375 -60.566406 45.546875 -58.390625 C 47.984375 -56.222656 49.925781 -53.707031 51.375 -50.84375 C 52.820312 -47.976562 53.546875 -44.882812 53.546875 -41.5625 L 53.546875 -40.109375 C 53.546875 -39.785156 53.421875 -39.503906 53.171875 -39.265625 C 52.929688 -39.023438 52.679688 -38.90625 52.421875 -38.90625 L 34.078125 -38.90625 C 33.703125 -38.90625 33.394531 -39.039062 33.15625 -39.3125 C 32.914062 -39.582031 32.796875 -39.878906 32.796875 -40.203125 L 32.796875 -40.59375 C 32.796875 -41.34375 32.582031 -42.09375 32.15625 -42.84375 C 31.726562 -43.59375 31.21875 -44.15625 30.625 -44.53125 C 29.175781 -45.394531 27.804688 -45.675781 26.515625 -45.375 C 25.234375 -45.082031 24.191406 -44.453125 23.390625 -43.484375 C 22.585938 -42.523438 22.1875 -41.398438 22.1875 -40.109375 L 22.1875 -24.203125 C 22.1875 -22.859375 22.695312 -21.660156 23.71875 -20.609375 C 24.738281 -19.566406 26 -19.046875 27.5 -19.046875 C 28.882812 -19.046875 30.113281 -19.566406 31.1875 -20.609375 C 32.257812 -21.660156 32.796875 -22.859375 32.796875 -24.203125 C 32.796875 -25.054688 33.222656 -25.484375 34.078125 -25.484375 Z M 34.078125 -25.484375 "/></g></g></g><g fill="#1e3a8a" fill-opacity="1"><g transform="translate(225.653649, 92.461173)"><g><path d="M 25.078125 -46.875 C 24.921875 -46.875 24.785156 -46.789062 24.671875 -46.625 C 24.566406 -46.46875 24.515625 -46.332031 24.515625 -46.21875 L 24.515625 -40.921875 C 24.515625 -40.597656 24.703125 -40.4375 25.078125 -40.4375 L 36.90625 -40.4375 C 37.96875 -40.4375 38.875 -40.0625 39.625 -39.3125 C 40.382812 -38.5625 40.765625 -37.648438 40.765625 -36.578125 L 40.765625 -27.8125 C 40.765625 -26.738281 40.382812 -25.828125 39.625 -25.078125 C 38.875 -24.328125 37.96875 -23.953125 36.90625 -23.953125 L 25.078125 -23.953125 C 24.703125 -23.953125 24.515625 -23.765625 24.515625 -23.390625 L 24.515625 -18.25 C 24.515625 -17.875 24.703125 -17.6875 25.078125 -17.6875 L 41.40625 -17.6875 C 42.582031 -17.6875 43.582031 -17.253906 44.40625 -16.390625 C 45.238281 -15.535156 45.65625 -14.519531 45.65625 -13.34375 L 45.65625 -4.34375 C 45.65625 -3.164062 45.238281 -2.171875 44.40625 -1.359375 C 43.582031 -0.554688 42.582031 -0.15625 41.40625 -0.15625 L 8.515625 -0.15625 C 6.859375 -0.15625 5.46875 -0.785156 4.34375 -2.046875 C 3.21875 -3.304688 2.65625 -5.113281 2.65625 -7.46875 L 2.65625 -59.8125 C 2.65625 -60.71875 3.21875 -61.679688 4.34375 -62.703125 C 5.46875 -63.722656 6.859375 -64.234375 8.515625 -64.234375 L 41.40625 -64.234375 C 42.582031 -64.234375 43.582031 -63.832031 44.40625 -63.03125 C 45.238281 -62.226562 45.65625 -61.234375 45.65625 -60.046875 L 45.65625 -51.046875 C 45.65625 -49.921875 45.238281 -48.941406 44.40625 -48.109375 C 43.582031 -47.285156 42.582031 -46.875 41.40625 -46.875 Z M 25.078125 -46.875 "/></g></g></g><g fill="#1e3a8a" fill-opacity="1"><g transform="translate(273.963212, 92.461173)"><g><path d="M 39.875 -21.703125 C 41.375 -21.703125 42.644531 -21.140625 43.6875 -20.015625 C 44.738281 -18.890625 45.265625 -17.578125 45.265625 -16.078125 L 45.265625 -5.3125 C 45.265625 -3.863281 44.738281 -2.613281 43.6875 -1.5625 C 42.644531 -0.519531 41.375 0 39.875 0 L 7.953125 0 C 6.242188 0 4.929688 -0.519531 4.015625 -1.5625 C 3.109375 -2.613281 2.65625 -3.863281 2.65625 -5.3125 L 2.65625 -57.796875 C 2.65625 -59.515625 3.203125 -61.03125 4.296875 -62.34375 C 5.398438 -63.65625 6.804688 -64.3125 8.515625 -64.3125 L 17.84375 -64.3125 C 19.507812 -64.3125 20.984375 -63.65625 22.265625 -62.34375 C 23.554688 -61.03125 24.203125 -59.515625 24.203125 -57.796875 L 24.203125 -21.703125 Z M 39.875 -21.703125 "/></g></g></g><path stroke-linecap="butt" transform="matrix(2.805043, 0, 0, 2.805043, -21.465395, 20.326635)" fill="none" stroke-linejoin="miter" d="M 26.331122 5.597315 C 26.480128 6.073578 26.597105 6.647321 26.680659 7.318545 C 26.768392 7.985592 26.812955 8.738978 26.812955 9.578705 C 26.812955 11.224736 26.612423 12.564399 26.21136 13.594909 C 25.810296 14.625419 25.371633 15.427546 24.896763 16.001289 C 24.093244 16.957992 23.051593 17.435648 21.769026 17.435648 L 17.787636 17.435648 L 17.787636 22.677323 C 17.787636 23.30677 17.567608 23.842914 17.128945 24.285754 C 16.690282 24.724418 16.166671 24.944445 15.555328 24.944445 L 12.573812 24.944445 C 11.963861 24.944445 11.436073 24.724418 10.993232 24.285754 C 10.554569 23.842914 10.334541 23.30677 10.334541 22.677323 L 10.334541 4.394125 C 10.334541 3.782782 10.554569 3.253601 10.993232 2.80519 C 11.436073 2.352601 11.963861 2.127003 12.573812 2.127003 L 21.656226 2.127003 C 22.724336 2.127003 23.69218 2.448689 24.559758 3.092061 C 25.432907 3.731256 26.021968 4.566805 26.331122 5.597315 Z M 20.397333 9.523001 C 20.397333 9.064842 20.234401 8.663779 19.907144 8.318419 C 19.585458 7.974451 19.184395 7.801771 18.703954 7.801771 L 18.158063 7.801771 C 18.046656 7.801771 17.954746 7.844941 17.885117 7.934066 C 17.819665 8.017621 17.787636 8.109531 17.787636 8.207012 L 17.787636 11.299935 C 17.787636 11.528318 17.910183 11.64251 18.158063 11.64251 L 18.703954 11.64251 C 19.184395 11.64251 19.585458 11.476793 19.907144 11.145358 C 20.234401 10.809746 20.397333 10.404505 20.397333 9.928242 Z M 49.166668 22.592376 C 49.264149 23.012935 49.227941 23.427924 49.055261 23.838736 C 48.882581 24.249547 48.604065 24.5587 48.222498 24.76898 C 47.974618 24.923557 47.687747 25.000149 47.361883 25.000149 L 43.464048 25.000149 C 42.927904 25.000149 42.526841 24.838609 42.260858 24.516923 C 41.994875 24.191059 41.756743 23.759359 41.546464 23.223215 L 40.685848 20.990907 L 36.299218 20.990907 L 35.466454 23.223215 C 35.256174 23.759359 35.018043 24.185489 34.75206 24.502997 C 34.48747 24.816328 34.085014 24.972297 33.54887 24.972297 L 29.652428 24.972297 C 29.343275 24.972297 29.094003 24.923557 28.903219 24.824683 C 28.482659 24.6339 28.173506 24.323354 27.972975 23.894439 C 27.772443 23.465524 27.729273 23.022683 27.84625 22.564524 L 33.002978 3.617064 C 33.058681 3.351081 33.16034 3.132446 33.303776 2.959766 C 33.448604 2.787086 33.589255 2.653398 33.724335 2.560095 C 34.027918 2.313608 34.398344 2.189669 34.837007 2.189669 L 42.344413 2.189669 C 42.554692 2.189669 42.783076 2.227268 43.029563 2.301075 C 43.28162 2.376275 43.512788 2.518318 43.723068 2.728598 C 43.933348 2.961159 44.069821 3.196505 44.135272 3.434636 C 44.206294 3.672768 44.259212 3.87887 44.296811 4.050157 Z M 39.853085 14.365006 C 39.988165 14.365006 40.094001 14.30791 40.167808 14.196504 C 40.243008 14.079527 40.261111 13.95698 40.224904 13.826077 L 39.482658 11.873678 L 38.881063 10.383616 C 38.81979 10.19144 38.694457 10.096745 38.503674 10.096745 C 38.317068 10.096745 38.193128 10.19144 38.131855 10.383616 L 37.558111 11.873678 L 36.817258 13.826077 C 36.737881 13.95698 36.744844 14.079527 36.838147 14.196504 C 36.935627 14.30791 37.052604 14.365006 37.187684 14.365006 Z M 68.483162 22.564524 C 68.636345 23.231571 68.517976 23.791388 68.126661 24.243977 C 67.733953 24.692388 67.260475 24.916594 66.706228 24.916594 L 62.059185 24.916594 C 61.584314 24.916594 61.082985 24.716062 60.555197 24.313606 C 60.032979 23.912543 59.694582 23.386147 59.541398 22.733026 L 58.792189 19.241825 L 58.567983 18.066487 C 58.567983 17.967614 58.509495 17.918873 58.393911 17.918873 C 58.300608 17.918873 58.25326 17.977362 58.25326 18.094339 L 58.25326 22.879247 C 58.25326 23.109023 58.236549 23.317911 58.20452 23.510087 C 58.176668 23.70087 58.029055 23.939002 57.763072 24.223088 C 57.572288 24.457042 57.341119 24.631115 57.070959 24.748091 C 56.804976 24.859498 56.529245 24.916594 56.245158 24.916594 L 52.578492 24.916594 C 52.024244 24.916594 51.550767 24.72024 51.158059 24.328925 C 50.766744 23.936217 50.57039 23.472487 50.57039 22.936343 L 50.57039 4.680997 C 50.57039 3.859374 50.766744 3.229927 51.158059 2.791264 C 51.550767 2.348423 52.024244 2.127003 52.578492 2.127003 L 62.9198 2.099151 C 63.973984 2.099151 64.926509 2.3902 65.774591 2.973692 C 66.624066 3.555791 67.30086 4.380199 67.804975 5.442738 C 68.313267 6.502493 68.566716 7.765564 68.566716 9.23613 C 68.566716 10.476919 68.380111 11.570096 68.006899 12.517051 C 67.633687 13.464006 67.132358 14.310695 66.502911 15.057119 C 66.582288 15.168525 66.650525 15.350954 66.706228 15.603011 Z M 60.855994 9.983946 C 60.855994 9.503505 60.688885 9.098264 60.35188 8.76683 C 60.021838 8.431218 59.627738 8.262715 59.169579 8.262715 L 58.623687 8.262715 C 58.3772 8.262715 58.25326 8.386655 58.25326 8.634535 L 58.25326 11.698213 C 58.25326 11.95027 58.3772 12.076995 58.623687 12.076995 L 59.169579 12.076995 C 59.627738 12.076995 60.021838 11.908493 60.35188 11.572881 C 60.688885 11.237269 60.855994 10.840383 60.855994 10.383616 Z M 81.665335 15.917734 L 88.200719 15.917734 C 88.294022 15.917734 88.383147 15.959512 88.466702 16.043066 C 88.554434 16.128014 88.598997 16.218532 88.598997 16.316012 L 88.598997 16.65998 C 88.598997 17.881274 88.339977 19.020405 87.823329 20.074589 C 87.309467 21.123203 86.617354 22.045091 85.744205 22.83747 C 84.876627 23.631241 83.887895 24.246762 82.778007 24.685425 C 81.672298 25.124088 80.517848 25.342724 79.314658 25.342724 C 78.147675 25.342724 77.005758 25.124088 75.886123 24.685425 C 74.770666 24.246762 73.772185 23.631241 72.890681 22.83747 C 72.013355 22.045091 71.311494 21.123203 70.785098 20.074589 C 70.26288 19.020405 70.001075 17.881274 70.001075 16.65998 L 70.001075 10.1803 C 70.001075 8.995213 70.26288 7.892289 70.785098 6.870134 C 71.311494 5.849372 72.013355 4.951157 72.890681 4.176882 C 73.772185 3.402607 74.770666 2.795442 75.886123 2.358171 C 77.005758 1.919508 78.147675 1.69948 79.314658 1.69948 C 80.517848 1.69948 81.672298 1.919508 82.778007 2.358171 C 83.887895 2.795442 84.876627 3.402607 85.744205 4.176882 C 86.617354 4.951157 87.309467 5.849372 87.823329 6.870134 C 88.339977 7.892289 88.598997 8.995213 88.598997 10.1803 L 88.598997 10.69834 C 88.598997 10.813924 88.554434 10.916975 88.466702 11.0061 C 88.383147 11.089655 88.294022 11.131433 88.200719 11.131433 L 81.665335 11.131433 C 81.530255 11.131433 81.417456 11.085477 81.329723 10.992174 C 81.246168 10.893301 81.202998 10.786072 81.202998 10.670488 L 81.202998 10.529838 C 81.202998 10.259677 81.126406 9.990909 80.973222 9.724926 C 80.822823 9.454765 80.643181 9.254233 80.434293 9.123331 C 79.916253 8.81557 79.426065 8.715304 78.96512 8.822533 C 78.506961 8.925584 78.133749 9.14979 77.845485 9.49515 C 77.560006 9.839117 77.417962 10.240181 77.417962 10.69834 L 77.417962 16.373108 C 77.417962 16.853549 77.600391 17.279679 77.963854 17.65289 C 78.327318 18.021924 78.778514 18.205745 79.314658 18.205745 C 79.809024 18.205745 80.247687 18.021924 80.629255 17.65289 C 81.012215 17.279679 81.202998 16.853549 81.202998 16.373108 C 81.202998 16.069525 81.357575 15.917734 81.665335 15.917734 Z M 98.025379 8.290567 C 97.969676 8.290567 97.920935 8.321204 97.879158 8.382477 C 97.841558 8.438181 97.823455 8.484136 97.823455 8.521735 L 97.823455 10.411468 C 97.823455 10.527052 97.890299 10.585541 98.025379 10.585541 L 102.237937 10.585541 C 102.620897 10.585541 102.945368 10.719229 103.211351 10.985212 C 103.481512 11.251195 103.616592 11.574273 103.616592 11.957233 L 103.616592 15.084971 C 103.616592 15.46793 103.481512 15.792402 103.211351 16.058385 C 102.945368 16.322975 102.620897 16.456663 102.237937 16.456663 L 98.025379 16.456663 C 97.890299 16.456663 97.823455 16.5249 97.823455 16.65998 L 97.823455 18.492617 C 97.823455 18.627697 97.890299 18.695934 98.025379 18.695934 L 103.840798 18.695934 C 104.265535 18.695934 104.624821 18.849118 104.918656 19.156878 C 105.216668 19.460461 105.365674 19.822532 105.365674 20.241699 L 105.365674 23.452991 C 105.365674 23.87355 105.216668 24.228659 104.918656 24.516923 C 104.624821 24.802402 104.265535 24.944445 103.840798 24.944445 L 92.120835 24.944445 C 91.527595 24.944445 91.031836 24.72024 90.62938 24.271829 C 90.228317 23.81924 90.027785 23.173082 90.027785 22.334748 L 90.027785 3.679731 C 90.027785 3.353867 90.228317 3.008507 90.62938 2.645043 C 91.031836 2.280187 91.527595 2.099151 92.120835 2.099151 L 103.840798 2.099151 C 104.265535 2.099151 104.624821 2.242587 104.918656 2.532244 C 105.216668 2.81633 105.365674 3.168653 105.365674 3.589213 L 105.365674 6.800505 C 105.365674 7.201568 105.216668 7.551106 104.918656 7.850511 C 104.624821 8.144346 104.265535 8.290567 103.840798 8.290567 Z M 120.523921 17.261575 C 121.055887 17.261575 121.508476 17.462107 121.881687 17.86317 C 122.254899 18.264233 122.441505 18.733533 122.441505 19.269677 L 122.441505 23.110416 C 122.441505 23.624278 122.254899 24.067119 121.881687 24.440331 C 121.508476 24.813543 121.055887 25.000149 120.523921 25.000149 L 109.146532 25.000149 C 108.531011 25.000149 108.060319 24.813543 107.733062 24.440331 C 107.411376 24.067119 107.251229 23.624278 107.251229 23.110416 L 107.251229 4.394125 C 107.251229 3.782782 107.446191 3.243853 107.838899 2.777338 C 108.230214 2.306646 108.731543 2.069907 109.342886 2.069907 L 112.666978 2.069907 C 113.258825 2.069907 113.783828 2.306646 114.240594 2.777338 C 114.702931 3.243853 114.9341 3.782782 114.9341 4.394125 L 114.9341 17.261575 Z M 120.523921 17.261575 " stroke="#1e3a8a" stroke-width="0.465769" stroke-opacity="1" stroke-miterlimit="4"/><g clip-path="url(#0444c06381)"><g clip-path="url(#754246c998)"><path fill="#ff6f3c" d="M 111.445312 150.007812 L 148.097656 150.007812 L 148.097656 168.332031 L 111.445312 168.332031 Z M 111.445312 150.007812 " fill-opacity="1" fill-rule="nonzero"/></g></g><g clip-path="url(#f0f4ffc935)"><g clip-path="url(#bc0146c2bd)"><path fill="#1e3a8a" d="M 2.105469 103.335938 L 38.753906 103.335938 L 38.753906 121.664062 L 2.105469 121.664062 Z M 2.105469 103.335938 " fill-opacity="1" fill-rule="nonzero"/></g></g><g clip-path="url(#c336f37578)"><g clip-path="url(#cf7ecc66d7)"><path fill="#1e3a8a" d="M 76.433594 102.148438 L 111.445312 102.148438 L 111.445312 119.65625 L 76.433594 119.65625 Z M 76.433594 102.148438 " fill-opacity="1" fill-rule="nonzero"/></g></g><g clip-path="url(#b6732bd2aa)"><g clip-path="url(#1697dd780e)"><path fill="#1e3a8a" d="M 58.929688 102.148438 L 93.941406 102.148438 L 93.941406 119.65625 L 58.929688 119.65625 Z M 58.929688 102.148438 " fill-opacity="1" fill-rule="nonzero"/></g></g><g clip-path="url(#6314c9bec6)"><g clip-path="url(#0e91795527)"><path fill="#ff6f3c" d="M 111.445312 125.160156 L 146.457031 125.160156 L 146.457031 142.667969 L 111.445312 142.667969 Z M 111.445312 125.160156 " fill-opacity="1" fill-rule="nonzero"/></g></g><g clip-path="url(#163e09f673)"><path fill="#1e3a8a" d="M 535.34375 69.863281 C 541.835938 64.613281 550.09375 61.464844 559.085938 61.464844 C 579.945312 61.464844 596.882812 78.402344 596.882812 99.257812 C 596.882812 120.117188 579.945312 137.054688 559.085938 137.054688 C 547.90625 137.054688 537.847656 132.183594 530.925781 124.457031 C 529.660156 123.039062 527.484375 122.921875 526.074219 124.1875 C 524.660156 125.449219 524.539062 127.625 525.804688 129.039062 C 533.988281 138.175781 545.871094 143.925781 559.085938 143.925781 C 583.738281 143.925781 603.753906 123.910156 603.753906 99.257812 C 603.753906 74.609375 583.738281 54.59375 559.085938 54.59375 C 548.457031 54.59375 538.691406 58.3125 531.023438 64.519531 C 529.546875 65.710938 529.316406 67.878906 530.507812 69.351562 C 531.707031 70.828125 533.867188 71.054688 535.34375 69.863281 Z M 535.34375 69.863281 " fill-opacity="1" fill-rule="evenodd"/></g><g clip-path="url(#0c07cf96f9)"><path fill="#1e3a8a" d="M 557.941406 58.027344 L 557.941406 48.867188 C 557.941406 46.96875 556.402344 45.429688 554.503906 45.429688 C 552.609375 45.429688 551.070312 46.96875 551.070312 48.867188 L 551.070312 58.027344 C 551.070312 59.925781 552.609375 61.464844 554.503906 61.464844 C 556.402344 61.464844 557.941406 59.925781 557.941406 58.027344 Z M 557.941406 58.027344 " fill-opacity="1" fill-rule="evenodd"/></g><g clip-path="url(#8cbfbc1b88)"><path fill="#1e3a8a" d="M 567.105469 58.027344 L 567.105469 48.867188 C 567.105469 46.96875 565.566406 45.429688 563.667969 45.429688 C 561.773438 45.429688 560.230469 46.96875 560.230469 48.867188 L 560.230469 58.027344 C 560.230469 59.925781 561.773438 61.464844 563.667969 61.464844 C 565.566406 61.464844 567.105469 59.925781 567.105469 58.027344 Z M 567.105469 58.027344 " fill-opacity="1" fill-rule="evenodd"/></g><path fill="#1e3a8a" d="M 589.003906 69.617188 L 595.484375 63.140625 C 596.824219 61.800781 596.824219 59.621094 595.484375 58.28125 C 594.140625 56.941406 591.964844 56.941406 590.625 58.28125 L 584.144531 64.761719 C 582.804688 66.101562 582.804688 68.28125 584.144531 69.617188 C 585.484375 70.960938 587.664062 70.960938 589.003906 69.617188 Z M 589.003906 69.617188 " fill-opacity="1" fill-rule="evenodd"/><path fill="#1e3a8a" d="M 600.457031 62.472656 L 591.292969 53.308594 C 589.957031 51.96875 587.773438 51.96875 586.4375 53.308594 C 585.09375 54.648438 585.09375 56.828125 586.4375 58.164062 L 595.597656 67.328125 C 596.9375 68.671875 599.117188 68.671875 600.457031 67.328125 C 601.796875 65.992188 601.796875 63.808594 600.457031 62.472656 Z M 600.457031 62.472656 " fill-opacity="1" fill-rule="evenodd"/><g clip-path="url(#3ba9be4898)"><path fill="#1e3a8a" d="M 549.925781 52.300781 L 568.25 52.300781 C 570.144531 52.300781 571.683594 50.761719 571.683594 48.867188 C 571.683594 46.96875 570.144531 45.429688 568.25 45.429688 L 549.925781 45.429688 C 548.027344 45.429688 546.488281 46.96875 546.488281 48.867188 C 546.488281 50.761719 548.027344 52.300781 549.925781 52.300781 Z M 549.925781 52.300781 " fill-opacity="1" fill-rule="evenodd"/></g><path fill="#1e3a8a" d="M 555.652344 74.0625 L 555.652344 96.96875 C 555.652344 97.878906 556.011719 98.753906 556.660156 99.398438 L 570.402344 113.140625 C 571.742188 114.484375 573.921875 114.484375 575.257812 113.140625 C 576.601562 111.804688 576.601562 109.621094 575.257812 108.285156 L 562.523438 95.542969 C 562.523438 95.542969 562.523438 74.0625 562.523438 74.0625 C 562.523438 72.167969 560.984375 70.625 559.085938 70.625 C 557.191406 70.625 555.652344 72.167969 555.652344 74.0625 Z M 555.652344 74.0625 " fill-opacity="1" fill-rule="evenodd"/><g clip-path="url(#c108d2c974)"><path fill="#1e3a8a" d="M 513.273438 100.40625 L 540.761719 100.40625 C 542.660156 100.40625 544.199219 98.867188 544.199219 96.96875 C 544.199219 95.070312 542.660156 93.53125 540.761719 93.53125 L 513.273438 93.53125 C 511.378906 93.53125 509.839844 95.070312 509.839844 96.96875 C 509.839844 98.867188 511.378906 100.40625 513.273438 100.40625 Z M 513.273438 100.40625 " fill-opacity="1" fill-rule="evenodd"/></g><path fill="#1e3a8a" d="M 527.019531 84.371094 L 540.761719 84.371094 C 542.660156 84.371094 544.199219 82.832031 544.199219 80.933594 C 544.199219 79.039062 542.660156 77.5 540.761719 77.5 L 527.019531 77.5 C 525.121094 77.5 523.582031 79.039062 523.582031 80.933594 C 523.582031 82.832031 525.121094 84.371094 527.019531 84.371094 Z M 527.019531 84.371094 " fill-opacity="1" fill-rule="evenodd"/><path fill="#1e3a8a" d="M 527.019531 116.4375 L 540.761719 116.4375 C 542.660156 116.4375 544.199219 114.898438 544.199219 113.003906 C 544.199219 111.105469 542.660156 109.566406 540.761719 109.566406 L 527.019531 109.566406 C 525.121094 109.566406 523.582031 111.105469 523.582031 113.003906 C 523.582031 114.898438 525.121094 116.4375 527.019531 116.4375 Z M 527.019531 116.4375 " fill-opacity="1" fill-rule="evenodd"/></svg>