<svg xmlns="http://www.w3.org/2000/svg" xmlns:xlink="http://www.w3.org/1999/xlink" width="1920" zoomAndPan="magnify" viewBox="0 0 1440 809.999993" height="1080" preserveAspectRatio="xMidYMid meet" version="1.0"><defs><clipPath id="ab5531b8c3"><path d="M 298.472656 389.671875 L 307.277344 389.671875 L 307.277344 398.710938 L 298.472656 398.710938 Z M 298.472656 389.671875 " clip-rule="nonzero"/></clipPath><clipPath id="f151feca15"><path d="M 307.273438 392.773438 C 307.050781 395.925781 305.773438 397.648438 304.800781 398.175781 C 304.125 398.625 303.449219 398.773438 302.699219 398.625 C 301.648438 398.398438 299.773438 397.273438 299.101562 396.449219 C 298.648438 395.851562 298.425781 395.175781 298.5 394.351562 C 298.574219 393.300781 299.398438 391.351562 300.226562 390.601562 C 300.75 390 301.351562 389.699219 302.175781 389.699219 C 303.226562 389.625 306.148438 390.898438 306.148438 390.898438 " clip-rule="nonzero"/></clipPath></defs><g clip-path="url(#ab5531b8c3)"><g clip-path="url(#f151feca15)"><path fill="#afd0e9" d="M 295.5 386.699219 L 310.425781 386.699219 L 310.425781 401.625 L 295.5 401.625 Z M 295.5 386.699219 " fill-opacity="1" fill-rule="nonzero"/></g></g><path fill="#f67848" d="M 1431.375 367.4375 C 1420.054688 365.523438 1408.703125 363.90625 1397.382812 362.167969 C 1388.425781 360.789062 1379.441406 359.710938 1370.457031 358.8125 C 1370.785156 357.316406 1371.175781 355.820312 1371.714844 354.320312 C 1372.851562 351.085938 1373.601562 347.640625 1375.039062 344.558594 C 1378.09375 338.089844 1379.113281 330.539062 1385.28125 325.6875 C 1388.15625 323.441406 1391.332031 321.914062 1394.535156 320.328125 C 1400.167969 317.511719 1406.097656 315.117188 1410.679688 310.683594 C 1413.914062 307.539062 1417.476562 305.082031 1421.460938 302.988281 C 1427.570312 299.75 1432.484375 294.988281 1436.257812 289.300781 C 1440.089844 283.488281 1437.84375 278.757812 1431.375 277.679688 C 1420.054688 275.761719 1408.703125 274.144531 1397.382812 272.40625 C 1378.09375 269.441406 1358.714844 267.824219 1339.246094 266.476562 C 1331.371094 265.9375 1323.464844 266.027344 1315.617188 264.800781 C 1307.949219 263.601562 1300.164062 263.210938 1292.464844 262.074219 C 1283.449219 260.726562 1274.285156 260.425781 1265.511719 257.582031 C 1258.351562 255.246094 1251.132812 253.089844 1243.886719 251.082031 C 1230.320312 247.339844 1216.542969 244.582031 1202.675781 242.335938 C 1187.941406 239.941406 1173.113281 238.144531 1158.289062 236.496094 C 1143.464844 234.820312 1128.578125 233.742188 1113.722656 232.453125 C 1098.867188 231.167969 1083.984375 230.207031 1069.128906 229.191406 C 1054.242188 228.171875 1039.328125 227.722656 1024.414062 226.941406 C 1008.269531 226.074219 992.066406 226.402344 975.921875 225.414062 C 970.171875 225.054688 964.390625 225.265625 958.613281 225.054688 C 941.449219 224.425781 924.289062 224.128906 907.15625 223.648438 C 871.515625 222.628906 835.847656 222.03125 800.175781 222.332031 C 763.757812 222.628906 727.308594 221.253906 690.859375 221.164062 C 639.734375 220.984375 588.609375 219.695312 537.453125 220.414062 C 535.476562 220.445312 533.5 220.292969 531.523438 220.445312 C 516.160156 221.671875 500.734375 221.851562 485.339844 222.539062 C 477.074219 222.898438 468.808594 223.289062 460.601562 223.917969 C 449.402344 224.785156 438.199219 224.964844 427 225.863281 C 416.574219 226.703125 406.0625 226.792969 395.582031 227.183594 C 376.113281 227.902344 356.707031 229.488281 337.238281 230.328125 C 316.902344 231.195312 296.59375 232.335938 276.289062 233.773438 C 256.460938 235.179688 236.753906 237.753906 217.167969 240.75 C 191.710938 244.644531 166.34375 249.046875 140.617188 251.113281 C 135.734375 251.503906 131.03125 250.605469 126.269531 250.964844 C 119.621094 251.472656 113 252.011719 106.324219 251.890625 C 99.613281 251.800781 94.703125 248.148438 91.289062 243.085938 C 87.84375 237.996094 81.582031 236.558594 78.46875 231.285156 C 78.050781 232.84375 77.960938 234.042969 78.019531 235.238281 C 78.199219 238.59375 77.449219 240.808594 73.289062 240.152344 C 71.460938 239.851562 70.144531 240.898438 69.574219 242.964844 C 68.796875 245.722656 66.878906 246.050781 65.171875 243.804688 C 64.363281 242.757812 63.824219 241.4375 63.34375 240.179688 C 61.488281 235.480469 61.246094 235.417969 56.726562 237.605469 C 55.527344 238.203125 54.75 239.011719 54.328125 240.269531 C 53.941406 241.4375 53.191406 242.398438 51.875 241.828125 C 49.449219 240.808594 49.058594 242.1875 49 244.042969 C 48.910156 247.488281 47.320312 247.371094 44.984375 245.8125 C 44.265625 245.332031 43.097656 244.195312 42.558594 245.660156 C 40.523438 251.023438 38.875 246.46875 38.097656 245.242188 C 34.292969 239.402344 31.65625 241.5 27.675781 244.105469 C 26.027344 245.09375 25.066406 246.832031 24.617188 248.835938 C 24.46875 249.527344 24.140625 250.8125 23.988281 250.785156 C 19.378906 250.453125 22.550781 253.300781 22.761719 254.289062 C 23.421875 257.253906 25.335938 259.886719 25.546875 263.03125 C 25.636719 264.320312 25.695312 265.609375 24.347656 266.238281 C 22.972656 266.898438 22.011719 266.058594 21.175781 265.039062 C 18.839844 262.253906 17.160156 259.140625 15.8125 255.816406 C 15.066406 253.988281 14.554688 252.070312 13.238281 250.515625 C 12.519531 249.707031 11.742188 248.808594 10.453125 249.015625 C 9.015625 249.257812 8.984375 250.515625 8.863281 251.59375 C 8.625 253.839844 7.605469 255.753906 5.121094 255.007812 C 1.289062 253.839844 0.777344 256.054688 0.628906 258.75 C 0.148438 268.09375 1.917969 277.050781 4.761719 285.914062 C 6.738281 292.054688 9.433594 298.132812 8.746094 304.875 C 8.566406 306.609375 8.957031 308.289062 9.433594 309.964844 C 11.800781 317.992188 14.765625 325.839844 16.59375 334.074219 C 18.210938 341.351562 21.175781 347.792969 25.515625 353.332031 C 25.578125 354.46875 25.488281 355.550781 24.289062 356.117188 C 22.910156 356.777344 21.953125 355.9375 21.113281 354.921875 C 18.777344 352.132812 17.101562 349.019531 15.753906 345.695312 C 15.003906 343.867188 14.496094 341.953125 13.179688 340.394531 C 12.460938 339.554688 11.679688 338.628906 10.394531 338.867188 C 8.957031 339.105469 8.925781 340.363281 8.804688 341.441406 C 8.566406 343.6875 7.546875 345.605469 5.0625 344.855469 C 1.226562 343.6875 0.71875 345.90625 0.570312 348.601562 C 0.0898438 357.945312 1.855469 366.898438 4.703125 375.765625 C 6.679688 381.90625 9.375 387.984375 8.683594 394.722656 C 8.503906 396.460938 8.894531 398.136719 9.375 399.816406 C 11.742188 407.839844 14.707031 415.6875 16.53125 423.925781 C 19.199219 435.933594 25.457031 445.640625 35.730469 452.738281 C 38.546875 454.683594 40.492188 457.617188 42.558594 460.433594 C 45.136719 463.910156 47.652344 468.011719 53.371094 466.964844 C 54.988281 466.664062 57.535156 466.992188 58.28125 469.328125 C 59.808594 474.121094 64.09375 476.097656 67.65625 478.824219 C 69.964844 480.558594 72.300781 482.269531 74.84375 484.15625 C 73.378906 484.875 72.300781 484.695312 71.25 484.246094 C 70.234375 483.796875 69.15625 483.167969 68.257812 484.363281 C 67.417969 485.503906 68.316406 486.429688 68.824219 487.390625 C 70.023438 489.636719 72.03125 491.433594 72.058594 494.308594 C 72.089844 495.804688 73.289062 496.492188 74.726562 495.566406 C 77.300781 493.886719 78.4375 494.9375 79.277344 497.511719 C 79.757812 499.011719 80.476562 500.597656 81.523438 501.707031 C 83.441406 503.683594 82.992188 507.394531 86.4375 508.234375 C 88.683594 508.773438 89.402344 510.359375 89.519531 512.636719 C 89.671875 514.972656 90.777344 517.21875 93.714844 516.5 C 95.71875 516.019531 97.277344 516.199219 98.953125 517.28125 C 99.523438 517.640625 100.933594 518.777344 100.902344 516.738281 C 100.902344 515.632812 101.140625 515.03125 102.25 515.0625 C 103.238281 515.09375 103.988281 515.722656 104.105469 516.589844 C 104.464844 519.078125 105.785156 520.574219 108.121094 521.351562 C 108.570312 521.503906 109.109375 522.3125 109.078125 522.761719 C 108.867188 526.292969 111.382812 528.210938 113.300781 530.605469 C 114.648438 532.285156 115.1875 532.761719 116.746094 530.785156 C 118.574219 528.449219 125.160156 527.492188 126.988281 529.378906 C 130.164062 532.671875 133.757812 533.660156 138.070312 532.882812 C 139.359375 532.644531 140.136719 532.851562 140.316406 534.46875 C 140.644531 537.554688 142.351562 538.8125 145.4375 537.707031 C 146.15625 537.4375 146.90625 537.195312 147.445312 537.945312 C 148.011719 538.722656 147.832031 539.59375 147.414062 540.402344 C 146.753906 541.628906 145.675781 542.046875 144.300781 541.867188 C 142.472656 541.660156 140.675781 542.378906 140.796875 544.175781 C 140.914062 545.761719 143.011719 545.191406 144.269531 545.28125 C 148.074219 545.550781 148.640625 546.390625 147.234375 549.835938 C 146.90625 550.613281 146.367188 551.300781 146.007812 552.082031 C 145.707031 552.710938 145.738281 553.128906 146.574219 553.429688 C 152.234375 555.617188 158.078125 556.273438 164.125 556.246094 C 170.324219 556.214844 176.40625 555.40625 182.546875 554.65625 C 184.910156 554.359375 187.785156 555.585938 188.355469 551.722656 C 188.414062 551.300781 189.316406 550.671875 189.792969 550.703125 C 192.789062 550.824219 194.4375 549.085938 195.8125 546.75 C 196.144531 546.179688 197.042969 545.523438 197.582031 545.582031 C 201.175781 546.0625 204.347656 542.46875 208.09375 544.5625 C 208.632812 544.863281 209.710938 544.804688 210.25 544.472656 C 213.605469 542.347656 216.929688 541.988281 220.34375 544.265625 C 220.550781 544.382812 221.152344 544.265625 221.300781 544.054688 C 224.085938 540.402344 228.96875 541.75 232.351562 539.414062 C 233.429688 538.664062 234.628906 539.890625 235.289062 541.03125 C 235.886719 542.078125 235.46875 542.828125 234.75 543.664062 C 232.292969 546.570312 232.472656 547.976562 236.15625 548.367188 C 239.511719 548.726562 242.984375 547.917969 246.460938 547.859375 C 249.632812 547.796875 252.808594 545.222656 256.371094 544.625 C 258.617188 544.234375 258.976562 542.078125 257.480469 540.699219 C 254.664062 538.15625 256.460938 537.226562 258.648438 536.359375 C 262.871094 534.679688 267.394531 536.089844 271.707031 535.21875 C 272.515625 535.039062 273.472656 534.980469 273.863281 536.269531 C 272.484375 537.675781 270.929688 537.316406 269.191406 536.925781 C 267.15625 536.476562 266.285156 538.425781 265.117188 539.59375 C 264.429688 540.28125 264.699219 541.269531 265.269531 541.988281 C 266.347656 543.335938 267.875 542.945312 269.042969 542.46875 C 271.527344 541.507812 274.222656 541.808594 276.617188 541.148438 C 281.023438 539.953125 285.574219 540.160156 290.007812 538.964844 C 293.511719 538.003906 297.195312 536.089844 301.359375 537.886719 C 304.683594 539.292969 307.40625 536.207031 310.433594 535.25 C 311.152344 535.011719 311.242188 533.871094 310.851562 533.273438 C 308.515625 529.796875 311.269531 529.976562 313.308594 529.976562 C 314.6875 529.976562 315.855469 529.5 317.113281 529.289062 C 319.566406 528.839844 322.144531 527.582031 324.660156 528.78125 C 326.214844 529.527344 327.265625 529.289062 328.671875 528.359375 C 331.15625 526.714844 333.046875 527.582031 333.734375 530.425781 C 334.125 531.984375 335.050781 533.03125 336.308594 533.839844 C 337.089844 534.351562 338.40625 534.441406 338.015625 535.820312 C 337.71875 536.898438 336.667969 536.65625 335.800781 536.65625 C 334.453125 536.6875 333.523438 537.4375 333.792969 538.722656 C 334.125 540.339844 335.410156 539.621094 336.488281 539.441406 C 338.886719 539.023438 341.429688 538.125 343.707031 538.574219 C 348.976562 539.59375 353.949219 538.695312 358.980469 537.617188 C 361.738281 537.015625 364.523438 536.566406 367.425781 537.078125 C 371.859375 537.886719 376.351562 537.40625 380.84375 537.316406 C 387.585938 537.167969 394.203125 535.730469 401.03125 536 C 404.417969 536.117188 407.769531 536.777344 411.09375 536.597656 C 417.59375 536.238281 423.972656 534.800781 430.5625 534.832031 C 433.40625 534.859375 436.101562 536.207031 438.707031 535.789062 C 441.136719 535.398438 443.589844 535.308594 446.015625 534.949219 C 451.675781 534.109375 457.578125 536.539062 462.730469 535.191406 C 470.035156 533.300781 477.195312 535.308594 484.5625 533.75 C 492.917969 532.015625 501.933594 532.132812 510.707031 532.164062 C 520.5625 532.164062 530.328125 530.667969 540.210938 530.757812 C 548.867188 530.816406 557.519531 530.667969 566.117188 529.230469 C 568.421875 528.839844 570.96875 530.097656 573.453125 529.738281 C 578.605469 528.960938 583.964844 531.386719 589 528.691406 C 589.566406 528.390625 590.585938 528.421875 591.183594 528.71875 C 593.820312 530.097656 596.457031 529.078125 599.121094 529.078125 C 609.363281 529.078125 619.605469 527.910156 629.851562 529.167969 C 630.6875 529.257812 631.648438 529.289062 632.425781 528.960938 C 635.75 527.582031 639.226562 528.121094 642.667969 527.941406 C 646.890625 527.703125 651.054688 529.558594 655.007812 529.050781 C 664.054688 527.910156 673.039062 527.761719 682.113281 528.332031 C 688.402344 528.71875 694.691406 528.898438 700.980469 528.808594 C 703.378906 528.78125 705.382812 530.578125 707.78125 529.796875 C 712.09375 528.390625 716.554688 528.808594 720.808594 529.589844 C 724.613281 530.277344 728.535156 530.726562 732.160156 530.335938 C 743 529.199219 753.84375 529.589844 764.683594 529.558594 C 773.132812 529.527344 781.515625 528.78125 789.933594 528.121094 C 793.917969 527.820312 798.050781 526.984375 802.304688 528.179688 C 810.417969 530.398438 818.894531 528.988281 827.160156 529.109375 C 830.785156 529.140625 834.679688 528.300781 838.453125 528.242188 C 840.371094 528.210938 842.617188 527.3125 844.234375 528.660156 C 847.765625 531.566406 852.199219 530.757812 855.734375 530.398438 C 862.082031 529.796875 868.3125 530.875 874.574219 530.308594 C 875.53125 530.21875 876.609375 530.21875 877.207031 531.234375 C 878.765625 533.78125 880.292969 534.140625 882.480469 532.074219 C 883.675781 530.9375 884.84375 530.457031 886.402344 530.457031 C 890.925781 530.457031 895.449219 530.367188 899.96875 530.335938 C 901.167969 530.335938 901.828125 529.738281 902.125 528.71875 C 903.054688 525.605469 905.449219 525.097656 908.027344 525.875 C 911.382812 526.921875 915.214844 524.558594 918.269531 527.433594 C 918.480469 527.640625 919.226562 527.433594 919.675781 527.253906 C 921.894531 526.324219 924.078125 526.742188 926.207031 527.402344 C 928.574219 528.152344 930.609375 528.480469 931.476562 525.425781 C 931.65625 524.828125 932.105469 524.316406 932.824219 524.316406 C 933.785156 524.316406 934.082031 525.097656 934.113281 525.816406 C 934.203125 528.570312 936.089844 528.839844 937.976562 528.269531 C 943.007812 526.742188 948.519531 529.949219 953.371094 526.59375 C 953.820312 526.292969 954.957031 526.472656 955.496094 526.863281 C 959.0625 529.289062 963.195312 528.839844 967 528.570312 C 970.324219 528.359375 974.097656 530.066406 976.972656 527.550781 C 978.46875 526.234375 979.816406 526.023438 981.613281 526.054688 C 990.71875 526.324219 999.855469 526.175781 1008.929688 526.894531 C 1012.703125 527.191406 1017.34375 525.90625 1020.609375 531.117188 C 1020.730469 527.730469 1022.316406 527.3125 1024.171875 528.210938 C 1026.390625 529.289062 1028.695312 529.199219 1030.941406 528.929688 C 1034.535156 528.480469 1037.859375 530.996094 1041.425781 529.769531 C 1044.808594 528.601562 1048.460938 529.019531 1051.695312 529.199219 C 1056.28125 529.46875 1060.953125 529.347656 1065.5625 529.976562 C 1076.824219 531.566406 1088.207031 530.457031 1099.527344 531.835938 C 1110.878906 533.210938 1122.378906 533.691406 1133.789062 534.199219 C 1147.988281 534.800781 1162.152344 535.667969 1176.257812 537.015625 C 1182.101562 537.554688 1187.550781 539.710938 1193.871094 538.605469 C 1200.96875 537.375 1207.707031 542.378906 1215.164062 541.597656 C 1219.746094 541.121094 1224.210938 543.425781 1228.671875 543.246094 C 1238.015625 542.917969 1246.730469 545.222656 1255.507812 547.796875 C 1256.40625 548.066406 1257.214844 548.097656 1258.023438 547.679688 C 1260.210938 546.539062 1262.304688 546.988281 1264.433594 547.886719 C 1266.4375 548.695312 1268.804688 549.117188 1270.601562 548.21875 C 1274.914062 546 1279.917969 545.761719 1284.109375 543.304688 C 1284.738281 542.917969 1285.964844 543.15625 1285.847656 541.6875 C 1284.679688 541.390625 1283.511719 540.941406 1282.3125 540.820312 C 1279.316406 540.492188 1277.339844 539.683594 1279.4375 536.207031 C 1279.976562 535.339844 1279.796875 534.53125 1278.988281 533.902344 C 1278.058594 533.183594 1276.980469 532.941406 1275.875 533.480469 C 1274.886719 533.960938 1275.066406 534.890625 1275.214844 535.757812 C 1275.484375 537.167969 1276.113281 539.503906 1274.078125 539.203125 C 1270.902344 538.722656 1268.085938 540.28125 1264.972656 539.800781 C 1259.941406 538.992188 1254.667969 539.59375 1250.054688 536.6875 C 1248.949219 536 1247.660156 536.597656 1246.703125 537.554688 C 1244.996094 539.261719 1243.109375 539.863281 1241.191406 538.066406 C 1239.15625 536.179688 1239.574219 534.199219 1241.820312 532.582031 C 1237.898438 530.726562 1237.71875 530.726562 1233.375 533.453125 C 1231.90625 534.351562 1230.617188 535.578125 1228.640625 535.011719 C 1226.785156 534.46875 1224.988281 534.53125 1223.25 535.398438 C 1222.441406 535.789062 1221.515625 535.9375 1220.886719 535.101562 C 1220.195312 534.140625 1220.464844 533.242188 1221.394531 532.523438 L 1262.1875 523.570312 C 1267.128906 524.378906 1272.011719 525.457031 1276.773438 527.253906 C 1283.300781 529.707031 1286.835938 528.179688 1289.710938 522.070312 C 1290.699219 525.425781 1294.832031 525.394531 1295.851562 528.242188 C 1296.777344 530.785156 1298.457031 532.433594 1300.550781 533.722656 C 1302.257812 534.769531 1303.066406 536.386719 1304.054688 537.914062 C 1304.773438 539.023438 1304.535156 540.3125 1303.457031 540.820312 C 1301.511719 541.6875 1299.953125 543.664062 1297.4375 543.066406 C 1296.539062 542.855469 1295.609375 542.855469 1295.429688 544.023438 C 1295.28125 545.074219 1296.089844 545.492188 1296.867188 545.941406 C 1299.652344 547.5 1302.769531 548.21875 1305.761719 547.617188 C 1308.398438 547.109375 1309.777344 548.21875 1311.066406 549.894531 C 1312.351562 551.570312 1311.304688 553.699219 1310.4375 554.65625 C 1309.207031 556.035156 1306.933594 555.195312 1305.253906 554.597656 C 1303.066406 553.820312 1301.121094 552.261719 1298.726562 552.109375 C 1296.71875 551.992188 1293.605469 551.0625 1293.09375 553.339844 C 1292.527344 555.914062 1295.851562 555.734375 1297.617188 556.484375 C 1298.515625 556.875 1299.535156 556.992188 1300.492188 557.144531 C 1304.085938 557.683594 1307.230469 559.480469 1310.617188 560.648438 C 1311.605469 560.976562 1312.441406 561.636719 1312.082031 562.832031 C 1311.785156 563.851562 1310.824219 563.820312 1309.925781 563.910156 C 1308.820312 564 1307.5 562.953125 1306.542969 564.390625 C 1308.730469 565.976562 1309.957031 566.425781 1314 566.964844 C 1315.496094 567.175781 1317.085938 567.324219 1318.011719 568.554688 C 1319.449219 570.441406 1320.917969 572.148438 1323.074219 573.257812 C 1323.941406 573.707031 1324.75 574.753906 1323.734375 575.683594 C 1320.589844 578.496094 1322.625 579.785156 1325.109375 581.042969 C 1326.21875 581.613281 1327.148438 582.332031 1327.71875 583.527344 C 1328.347656 584.816406 1337.988281 586.433594 1339.15625 585.566406 C 1339.335938 585.414062 1339.457031 585.175781 1339.578125 584.964844 C 1340.683594 582.570312 1342.871094 581.792969 1344.730469 583.230469 C 1346.765625 584.785156 1343.46875 585.953125 1343.589844 588.019531 C 1346.015625 588.351562 1348.144531 588.5 1349.582031 586.132812 C 1350.6875 584.335938 1351.765625 584.425781 1352.816406 586.3125 C 1354.730469 589.730469 1356.410156 590.207031 1358.894531 587.511719 C 1361.171875 585.027344 1363.058594 585.445312 1365.304688 587.121094 C 1366.292969 587.871094 1367.3125 588.859375 1368.628906 588.171875 C 1370.394531 587.242188 1372.222656 587.75 1374.019531 587.511719 C 1376.714844 587.183594 1380.1875 586.914062 1380.25 583.109375 C 1380.339844 578.40625 1381.746094 573.496094 1378.511719 569.183594 C 1377.703125 568.074219 1378.03125 566.847656 1378.03125 565.617188 C 1378.0625 557.890625 1379.441406 550.042969 1376.414062 542.527344 C 1375.636719 540.582031 1375.335938 538.542969 1375.15625 536.449219 C 1374.410156 527.550781 1372.433594 518.835938 1372.101562 509.820312 C 1371.953125 505.808594 1371.265625 501.824219 1370.726562 497.8125 C 1371.832031 497.722656 1372.941406 497.839844 1374.019531 497.722656 C 1376.714844 497.390625 1380.1875 497.121094 1380.25 493.320312 C 1380.339844 488.617188 1381.746094 483.707031 1378.511719 479.390625 C 1377.703125 478.285156 1378.03125 477.054688 1378.03125 475.828125 C 1378.0625 468.101562 1379.441406 460.253906 1376.414062 452.738281 C 1375.636719 450.789062 1375.335938 448.753906 1375.15625 446.65625 C 1374.886719 443.332031 1374.410156 440.007812 1373.960938 436.714844 C 1374.230469 435.933594 1374.558594 435.1875 1374.886719 434.4375 C 1377.941406 427.96875 1378.960938 420.421875 1385.132812 415.570312 C 1388.007812 413.324219 1391.179688 411.796875 1394.386719 410.207031 C 1400.015625 407.390625 1405.945312 404.996094 1410.527344 400.5625 C 1413.761719 397.417969 1417.328125 394.964844 1421.3125 392.867188 C 1427.421875 389.632812 1432.332031 384.871094 1436.105469 379.179688 C 1440.121094 373.25 1437.84375 368.546875 1431.375 367.4375 Z M 158.316406 543.964844 C 157.058594 545.222656 157.089844 547.707031 154.8125 547.886719 C 153.285156 548.007812 152.925781 546.660156 152.324219 545.582031 C 149.152344 540.011719 151.066406 535.371094 157.328125 535.308594 C 155.292969 537.796875 154.753906 539.773438 157.65625 541.417969 C 158.527344 541.898438 159.066406 543.214844 158.316406 543.964844 Z M 367.9375 531.773438 C 364.34375 531.054688 361.199219 530.636719 357.992188 531.175781 C 356.734375 531.386719 356.4375 530.785156 356.734375 529.679688 C 357.066406 528.480469 357.394531 526.863281 359.011719 527.523438 C 361.109375 528.359375 362.246094 527.582031 363.804688 526.292969 C 365.960938 524.527344 371.261719 526.921875 371.230469 529.589844 C 371.203125 531.835938 368.59375 530.726562 367.9375 531.773438 Z M 400.28125 529.4375 C 395.101562 530.546875 389.679688 528.960938 384.527344 530.695312 C 383.421875 531.054688 382.640625 530.335938 382.074219 529.5 C 381.59375 528.78125 381.804688 528.089844 382.3125 527.492188 C 383.03125 526.683594 383.691406 525.546875 385.007812 526.144531 C 387.34375 527.191406 389.859375 526.804688 392.167969 527.371094 C 394.082031 527.132812 395.96875 527.164062 397.648438 526.265625 C 398.664062 525.726562 399.773438 525.515625 400.851562 526.085938 C 401.898438 526.625 402.617188 527.703125 402.589844 528.75 C 402.527344 530.335938 401.089844 529.257812 400.28125 529.4375 Z M 771.8125 522.070312 C 767.140625 522.582031 762.679688 520.542969 758.035156 521.324219 C 757.257812 521.441406 756.449219 521.292969 756.238281 520.425781 C 755.96875 519.316406 756.867188 518.898438 757.707031 518.65625 C 758.636719 518.386719 759.625 518.269531 760.730469 518.058594 C 764.296875 519.078125 767.921875 520.273438 771.753906 518.539062 C 772.921875 518.027344 774.269531 518.898438 774.328125 520.425781 C 774.417969 522.191406 773.160156 521.921875 771.8125 522.070312 Z M 873.074219 505.210938 C 871.90625 509.34375 872.144531 509.433594 864.03125 509.460938 C 861.394531 509.820312 858.128906 509.941406 855.136719 507.933594 C 853.875 507.097656 853.066406 506.226562 853.21875 504.671875 C 853.398438 502.8125 854.894531 503.503906 855.972656 503.144531 C 858.21875 502.394531 860.257812 502.8125 862.382812 503.351562 C 865.167969 504.042969 867.894531 503.980469 870.648438 502.875 C 872.65625 502.066406 873.914062 502.246094 873.074219 505.210938 Z M 905.808594 506.167969 C 903.292969 506.347656 901.828125 509.34375 899.191406 508.625 C 897.125 507.785156 895.808594 509.671875 894.160156 509.703125 C 892.601562 509.730469 889.996094 511.289062 891.253906 507.007812 C 892.273438 503.503906 892.84375 502.695312 896.707031 503.261719 C 899.492188 503.683594 902.695312 502.515625 905.75 503.382812 C 906.558594 503.621094 907.667969 503.742188 907.726562 504.761719 C 907.757812 505.808594 906.617188 506.109375 905.808594 506.167969 Z M 928.152344 507.097656 C 925.546875 508.652344 923.539062 508.984375 921.113281 506.378906 C 919.945312 505.121094 917.582031 505.6875 916.351562 507.574219 C 915.066406 509.550781 913.207031 509.703125 911.171875 509.191406 C 910.484375 509.011719 909.972656 508.324219 910.453125 507.84375 C 911.859375 506.4375 912.160156 503.472656 914.707031 503.742188 C 915.964844 503.863281 917.191406 503.890625 918.417969 503.863281 L 929.203125 506.675781 C 928.84375 506.828125 928.453125 506.917969 928.152344 507.097656 Z M 941.929688 512.308594 C 939.175781 511.886719 936.507812 510.691406 933.605469 511.769531 C 932.375 512.21875 931.566406 511.050781 931.207031 509.941406 C 930.667969 508.414062 932.105469 508.324219 932.914062 507.664062 L 945.34375 508.742188 C 945.3125 508.984375 945.3125 509.222656 945.375 509.523438 C 945.671875 512.277344 944.085938 512.636719 941.929688 512.308594 Z M 956.664062 512.335938 C 954.570312 512.425781 952.472656 512.367188 950.375 512.277344 C 949.296875 512.246094 947.890625 512.367188 947.652344 510.960938 C 947.472656 509.820312 948.101562 509.34375 948.910156 509.042969 L 959.660156 509.972656 C 959.179688 511.230469 958.433594 512.277344 956.664062 512.335938 Z M 977.390625 511.707031 C 977.511719 511.679688 977.691406 511.617188 977.871094 511.558594 L 986.707031 512.308594 C 983.5625 512.875 980.355469 514.523438 977.390625 511.707031 Z M 991.378906 512.9375 C 991.199219 512.816406 991.019531 512.726562 990.867188 512.667969 L 991.648438 512.726562 C 991.558594 512.816406 991.46875 512.875 991.378906 512.9375 Z M 998.386719 513.773438 C 997.90625 513.65625 997.425781 513.445312 996.976562 513.207031 L 1011.203125 514.433594 C 1007.042969 515.601562 1002.640625 514.882812 998.386719 513.773438 Z M 1214.476562 532.285156 C 1211.570312 534.5 1207.4375 533.722656 1205.25 531.175781 L 1214.863281 532.015625 C 1214.746094 532.074219 1214.59375 532.164062 1214.476562 532.285156 Z M 1214.476562 532.285156 " fill-opacity="1" fill-rule="nonzero"/><path fill="#f67848" d="M 385.695312 543.457031 C 384.707031 543.484375 383.71875 543.515625 382.761719 543.726562 C 374.734375 545.402344 366.5 544.472656 358.351562 545.820312 C 351.316406 546.988281 344.125 548.066406 336.9375 548.847656 C 330.707031 549.503906 324.570312 548.875 318.398438 549.65625 C 313.308594 550.3125 308.125 550.195312 303.09375 551.03125 C 295.695312 552.261719 288.359375 553.757812 280.933594 554.835938 C 279.195312 555.078125 277.457031 553.371094 276.4375 554.207031 C 273.921875 556.304688 271.257812 555.855469 268.414062 555.855469 C 266.347656 555.855469 265.117188 558.28125 265.117188 559.539062 C 265.117188 560.855469 267.964844 561.636719 269.070312 560.917969 C 273.414062 558.101562 278.863281 559.628906 283.207031 557.054688 C 283.6875 556.753906 284.464844 556.605469 284.976562 556.785156 C 291.175781 558.699219 297.015625 556.304688 303.003906 555.496094 C 307.527344 554.898438 312.019531 553.578125 316.511719 553.578125 C 326.90625 553.578125 337.179688 552.230469 347.242188 550.164062 C 358.082031 547.917969 369.164062 549.804688 379.886719 547.199219 C 382.101562 547.289062 384.347656 547.527344 386.355469 546.332031 C 387.074219 545.882812 387.972656 545.402344 387.554688 544.324219 C 387.253906 543.425781 386.414062 543.425781 385.695312 543.457031 Z M 385.695312 543.457031 " fill-opacity="1" fill-rule="nonzero"/><path fill="#f67848" d="M 854.296875 533.390625 C 852.976562 532.464844 852.46875 532.761719 852.167969 534.378906 C 851.871094 536 850.433594 536.238281 848.964844 536.179688 C 837.074219 535.667969 825.15625 536.179688 813.292969 535.339844 C 808.261719 534.980469 803.140625 535.730469 798.167969 535.398438 C 792.269531 535.011719 786.339844 535.460938 780.46875 534.710938 C 778.222656 534.410156 776.246094 535.847656 773.941406 535.339844 C 768.878906 534.230469 763.757812 533.542969 758.636719 535.160156 C 757.828125 535.398438 756.867188 535.640625 756.121094 535.398438 C 752.257812 534.140625 748.183594 534.980469 744.199219 534.050781 C 740.84375 533.273438 737.070312 533.929688 734.015625 536.207031 C 735.695312 538.273438 738.238281 537.855469 740.425781 538.515625 C 744.347656 539.683594 748.214844 538.003906 752.078125 538.214844 C 758.875 538.605469 765.585938 540.101562 772.441406 539.113281 C 776.996094 538.453125 781.488281 537.824219 786.25 538.335938 C 789.84375 538.695312 793.648438 537.765625 797.480469 538.273438 C 799.667969 538.574219 801.734375 540.101562 803.890625 539.414062 C 808.921875 537.824219 814.074219 539.234375 819.105469 538.335938 C 826.683594 537.015625 834.199219 538.84375 841.746094 538.753906 C 845.160156 538.722656 848.515625 537.707031 851.988281 538.246094 C 853.1875 538.425781 854.386719 537.617188 855.226562 536.6875 C 856.542969 535.191406 855.523438 534.230469 854.296875 533.390625 Z M 854.296875 533.390625 " fill-opacity="1" fill-rule="nonzero"/><path fill="#f67848" d="M 241.964844 554.386719 C 240.289062 554.898438 240.976562 556.035156 241.546875 557.023438 C 242.054688 557.863281 242.835938 558.910156 241.578125 559.539062 C 239.988281 560.378906 238.101562 560.289062 236.546875 559.570312 C 235.136719 558.941406 236.367188 557.953125 236.753906 557.144531 C 237.023438 556.605469 237.382812 555.585938 236.726562 555.617188 C 234.03125 555.796875 231.722656 550.402344 228.609375 555.105469 C 227.980469 556.035156 225.644531 555.734375 225.972656 557.921875 C 226.332031 560.109375 228.339844 558.910156 229.65625 559.570312 C 229.027344 561.1875 227.890625 562.023438 226.484375 561.425781 C 223.785156 560.257812 222.050781 562.324219 219.953125 563.011719 C 218.695312 563.433594 218.484375 564.988281 219.535156 565.738281 C 221.511719 567.144531 224.265625 568.703125 226.273438 567.65625 C 230.226562 565.617188 234.300781 565.050781 238.550781 564.539062 C 244.003906 563.851562 246.640625 560.199219 244.753906 556.15625 C 244.273438 554.925781 243.375 553.96875 241.964844 554.386719 Z M 241.964844 554.386719 " fill-opacity="1" fill-rule="nonzero"/><path fill="#f67848" d="M 733.925781 536.207031 C 733.957031 536.207031 733.988281 536.207031 733.988281 536.207031 C 733.988281 536.207031 733.988281 536.207031 733.988281 536.179688 C 733.957031 536.179688 733.925781 536.207031 733.925781 536.207031 Z M 733.925781 536.207031 " fill-opacity="1" fill-rule="nonzero"/><path fill="#f67848" d="M 718.980469 535.101562 C 718.351562 535.730469 717.753906 536.417969 717.992188 537.347656 C 718.261719 538.394531 719.25 538.515625 720.089844 538.484375 C 724.792969 538.246094 729.703125 539.171875 733.925781 536.207031 C 731.652344 533.480469 721.40625 532.734375 718.980469 535.101562 Z M 718.980469 535.101562 " fill-opacity="1" fill-rule="nonzero"/><path fill="#f67848" d="M 301.296875 545.730469 C 300.308594 544.023438 298.273438 546.210938 297.433594 544.023438 C 296.445312 541.390625 293.421875 541.089844 292.671875 543.605469 C 291.59375 547.230469 288.867188 546.929688 286.292969 547.289062 C 283.925781 547.617188 281.410156 547.140625 279.195312 548.757812 C 281.472656 550.042969 298.511719 547.679688 301.296875 545.730469 Z M 301.296875 545.730469 " fill-opacity="1" fill-rule="nonzero"/></svg>