<svg xmlns="http://www.w3.org/2000/svg" xmlns:xlink="http://www.w3.org/1999/xlink" width="1200" zoomAndPan="magnify" viewBox="0 0 900 749.999995" height="1000" preserveAspectRatio="xMidYMid meet" version="1.0"><defs><filter x="0%" y="0%" width="100%" height="100%" id="57c397fb52"><feColorMatrix values="0 0 0 0 1 0 0 0 0 1 0 0 0 0 1 0 0 0 1 0" color-interpolation-filters="sRGB"/></filter><mask id="a4c54e8f8b"><g filter="url(#57c397fb52)"><rect x="-90" width="1080" fill="#000000" y="-74.999999" height="899.999994" fill-opacity="0.6"/></g></mask><clipPath id="9591fcb6d9"><path d="M 0.179688 1.070312 L 177.929688 1.070312 L 177.929688 95.570312 L 0.179688 95.570312 Z M 0.179688 1.070312 " clip-rule="nonzero"/></clipPath><clipPath id="cd1bf03c1c"><rect x="0" width="180" y="0" height="96"/></clipPath><mask id="6ef0cde102"><g filter="url(#57c397fb52)"><rect x="-90" width="1080" fill="#000000" y="-74.999999" height="899.999994" fill-opacity="0.6"/></g></mask><clipPath id="89f2b698ac"><path d="M 2.148438 0.933594 L 183.636719 0.933594 L 183.636719 97.683594 L 2.148438 97.683594 Z M 2.148438 0.933594 " clip-rule="nonzero"/></clipPath><clipPath id="9e6a5abe61"><rect x="0" width="184" y="0" height="98"/></clipPath><mask id="62048c6172"><g filter="url(#57c397fb52)"><rect x="-90" width="1080" fill="#000000" y="-74.999999" height="899.999994" fill-opacity="0.61"/></g></mask><clipPath id="8b7cc236ff"><path d="M 0.9375 0.660156 L 563.117188 0.660156 L 563.117188 63.339844 L 0.9375 63.339844 Z M 0.9375 0.660156 " clip-rule="nonzero"/></clipPath><clipPath id="fd9beb6a44"><path d="M 282 0.660156 C 126.773438 0.660156 0.9375 14.691406 0.9375 32 C 0.9375 49.308594 126.773438 63.339844 282 63.339844 C 437.226562 63.339844 563.0625 49.308594 563.0625 32 C 563.0625 14.691406 437.226562 0.660156 282 0.660156 Z M 282 0.660156 " clip-rule="nonzero"/></clipPath><clipPath id="35c3ad319a"><rect x="0" width="564" y="0" height="64"/></clipPath><mask id="007fe653f1"><g filter="url(#57c397fb52)"><rect x="-90" width="1080" fill="#000000" y="-74.999999" height="899.999994" fill-opacity="0.63"/></g></mask><clipPath id="1c22d8fc58"><path d="M 53 94 L 250 94 L 250 296 L 53 296 Z M 53 94 " clip-rule="nonzero"/></clipPath><clipPath id="431cf5603e"><path d="M 0.632812 233.949219 L 275.351562 1.289062 L 387.316406 133.496094 L 112.601562 366.15625 Z M 0.632812 233.949219 " clip-rule="nonzero"/></clipPath><clipPath id="f4045309d5"><path d="M 0.632812 233.949219 L 275.351562 1.289062 L 387.316406 133.496094 L 112.601562 366.15625 Z M 0.632812 233.949219 " clip-rule="nonzero"/></clipPath><clipPath id="5aacb5ffbc"><path d="M 109 2 L 279 2 L 279 248 L 109 248 Z M 109 2 " clip-rule="nonzero"/></clipPath><clipPath id="6e2a6ec25f"><path d="M 0.632812 233.949219 L 275.351562 1.289062 L 387.316406 133.496094 L 112.601562 366.15625 Z M 0.632812 233.949219 " clip-rule="nonzero"/></clipPath><clipPath id="150163a6d4"><path d="M 0.632812 233.949219 L 275.351562 1.289062 L 387.316406 133.496094 L 112.601562 366.15625 Z M 0.632812 233.949219 " clip-rule="nonzero"/></clipPath><clipPath id="82a83c1273"><path d="M 57.117188 186.183594 L 275.378906 1.335938 L 327.707031 63.125 L 109.449219 247.972656 Z M 57.117188 186.183594 " clip-rule="nonzero"/></clipPath><clipPath id="57395ad4b0"><path d="M 126 128 L 305 128 L 305 304 L 126 304 Z M 126 128 " clip-rule="nonzero"/></clipPath><clipPath id="654c57cf55"><path d="M 0.632812 233.949219 L 275.351562 1.289062 L 387.316406 133.496094 L 112.601562 366.15625 Z M 0.632812 233.949219 " clip-rule="nonzero"/></clipPath><clipPath id="0a949ca0fd"><path d="M 0.632812 233.949219 L 275.351562 1.289062 L 387.316406 133.496094 L 112.601562 366.15625 Z M 0.632812 233.949219 " clip-rule="nonzero"/></clipPath><clipPath id="3e66f4b38b"><path d="M 184 99 L 346 99 L 346 290 L 184 290 Z M 184 99 " clip-rule="nonzero"/></clipPath><clipPath id="c45e3d6321"><path d="M 0.632812 233.949219 L 275.351562 1.289062 L 387.316406 133.496094 L 112.601562 366.15625 Z M 0.632812 233.949219 " clip-rule="nonzero"/></clipPath><clipPath id="2e9d9d47e3"><path d="M 0.632812 233.949219 L 275.351562 1.289062 L 387.316406 133.496094 L 112.601562 366.15625 Z M 0.632812 233.949219 " clip-rule="nonzero"/></clipPath><clipPath id="c886d2ac6b"><path d="M 104 203 L 265 203 L 265 321 L 104 321 Z M 104 203 " clip-rule="nonzero"/></clipPath><clipPath id="0ecb537086"><path d="M 0.632812 233.949219 L 275.351562 1.289062 L 387.316406 133.496094 L 112.601562 366.15625 Z M 0.632812 233.949219 " clip-rule="nonzero"/></clipPath><clipPath id="4a82b18db4"><path d="M 0.632812 233.949219 L 275.351562 1.289062 L 387.316406 133.496094 L 112.601562 366.15625 Z M 0.632812 233.949219 " clip-rule="nonzero"/></clipPath><clipPath id="e167cfc8aa"><path d="M 95 132 L 282 132 L 282 307 L 95 307 Z M 95 132 " clip-rule="nonzero"/></clipPath><clipPath id="62d35dd6ec"><path d="M 0.632812 233.949219 L 275.351562 1.289062 L 387.316406 133.496094 L 112.601562 366.15625 Z M 0.632812 233.949219 " clip-rule="nonzero"/></clipPath><clipPath id="9c2c735099"><path d="M 0.632812 233.949219 L 275.351562 1.289062 L 387.316406 133.496094 L 112.601562 366.15625 Z M 0.632812 233.949219 " clip-rule="nonzero"/></clipPath><clipPath id="471698f08f"><path d="M 116 168 L 268 168 L 268 302 L 116 302 Z M 116 168 " clip-rule="nonzero"/></clipPath><clipPath id="817b890b9e"><path d="M 0.632812 233.949219 L 275.351562 1.289062 L 387.316406 133.496094 L 112.601562 366.15625 Z M 0.632812 233.949219 " clip-rule="nonzero"/></clipPath><clipPath id="1797094a81"><path d="M 0.632812 233.949219 L 275.351562 1.289062 L 387.316406 133.496094 L 112.601562 366.15625 Z M 0.632812 233.949219 " clip-rule="nonzero"/></clipPath><clipPath id="42ac4843b7"><path d="M 92 70 L 275 70 L 275 282 L 92 282 Z M 92 70 " clip-rule="nonzero"/></clipPath><clipPath id="fb1e01a4af"><path d="M 0.632812 233.949219 L 275.351562 1.289062 L 387.316406 133.496094 L 112.601562 366.15625 Z M 0.632812 233.949219 " clip-rule="nonzero"/></clipPath><clipPath id="ec784f8a3e"><path d="M 0.632812 233.949219 L 275.351562 1.289062 L 387.316406 133.496094 L 112.601562 366.15625 Z M 0.632812 233.949219 " clip-rule="nonzero"/></clipPath><clipPath id="6360c2b625"><path d="M 123 130 L 255 130 L 255 272 L 123 272 Z M 123 130 " clip-rule="nonzero"/></clipPath><clipPath id="be992a81a1"><path d="M 0.632812 233.949219 L 275.351562 1.289062 L 387.316406 133.496094 L 112.601562 366.15625 Z M 0.632812 233.949219 " clip-rule="nonzero"/></clipPath><clipPath id="3eb8353ab9"><path d="M 0.632812 233.949219 L 275.351562 1.289062 L 387.316406 133.496094 L 112.601562 366.15625 Z M 0.632812 233.949219 " clip-rule="nonzero"/></clipPath><clipPath id="091aa2d799"><path d="M 76 124 L 269 124 L 269 305 L 76 305 Z M 76 124 " clip-rule="nonzero"/></clipPath><clipPath id="0f596f9f13"><path d="M 0.632812 233.949219 L 275.351562 1.289062 L 387.316406 133.496094 L 112.601562 366.15625 Z M 0.632812 233.949219 " clip-rule="nonzero"/></clipPath><clipPath id="b81c0af1be"><path d="M 0.632812 233.949219 L 275.351562 1.289062 L 387.316406 133.496094 L 112.601562 366.15625 Z M 0.632812 233.949219 " clip-rule="nonzero"/></clipPath><clipPath id="c59a53aee7"><path d="M 121 91 L 297 91 L 297 288 L 121 288 Z M 121 91 " clip-rule="nonzero"/></clipPath><clipPath id="293422c022"><path d="M 0.632812 233.949219 L 275.351562 1.289062 L 387.316406 133.496094 L 112.601562 366.15625 Z M 0.632812 233.949219 " clip-rule="nonzero"/></clipPath><clipPath id="74952cf10a"><path d="M 0.632812 233.949219 L 275.351562 1.289062 L 387.316406 133.496094 L 112.601562 366.15625 Z M 0.632812 233.949219 " clip-rule="nonzero"/></clipPath><clipPath id="f00072f96f"><path d="M 116 237 L 185 237 L 185 289 L 116 289 Z M 116 237 " clip-rule="nonzero"/></clipPath><clipPath id="80e204b518"><path d="M 0.632812 233.949219 L 275.351562 1.289062 L 387.316406 133.496094 L 112.601562 366.15625 Z M 0.632812 233.949219 " clip-rule="nonzero"/></clipPath><clipPath id="42219262f7"><path d="M 0.632812 233.949219 L 275.351562 1.289062 L 387.316406 133.496094 L 112.601562 366.15625 Z M 0.632812 233.949219 " clip-rule="nonzero"/></clipPath><clipPath id="9850e661aa"><path d="M 180 171 L 242 171 L 242 238 L 180 238 Z M 180 171 " clip-rule="nonzero"/></clipPath><clipPath id="4ac302abf3"><path d="M 0.632812 233.949219 L 275.351562 1.289062 L 387.316406 133.496094 L 112.601562 366.15625 Z M 0.632812 233.949219 " clip-rule="nonzero"/></clipPath><clipPath id="14b10a8bf3"><path d="M 0.632812 233.949219 L 275.351562 1.289062 L 387.316406 133.496094 L 112.601562 366.15625 Z M 0.632812 233.949219 " clip-rule="nonzero"/></clipPath><clipPath id="01bce38987"><path d="M 156 219 L 221 219 L 221 275 L 156 275 Z M 156 219 " clip-rule="nonzero"/></clipPath><clipPath id="08f334f1a5"><path d="M 0.632812 233.949219 L 275.351562 1.289062 L 387.316406 133.496094 L 112.601562 366.15625 Z M 0.632812 233.949219 " clip-rule="nonzero"/></clipPath><clipPath id="eb0efcc9e8"><path d="M 0.632812 233.949219 L 275.351562 1.289062 L 387.316406 133.496094 L 112.601562 366.15625 Z M 0.632812 233.949219 " clip-rule="nonzero"/></clipPath><clipPath id="69cb5b2d68"><path d="M 102 236 L 148 236 L 148 273 L 102 273 Z M 102 236 " clip-rule="nonzero"/></clipPath><clipPath id="11dac09684"><path d="M 0.632812 233.949219 L 275.351562 1.289062 L 387.316406 133.496094 L 112.601562 366.15625 Z M 0.632812 233.949219 " clip-rule="nonzero"/></clipPath><clipPath id="cf32df5cf0"><path d="M 0.632812 233.949219 L 275.351562 1.289062 L 387.316406 133.496094 L 112.601562 366.15625 Z M 0.632812 233.949219 " clip-rule="nonzero"/></clipPath><clipPath id="585259f382"><path d="M 65 214 L 140 214 L 140 276 L 65 276 Z M 65 214 " clip-rule="nonzero"/></clipPath><clipPath id="f08a20803e"><path d="M 0.632812 233.949219 L 275.351562 1.289062 L 387.316406 133.496094 L 112.601562 366.15625 Z M 0.632812 233.949219 " clip-rule="nonzero"/></clipPath><clipPath id="f5375cc308"><path d="M 0.632812 233.949219 L 275.351562 1.289062 L 387.316406 133.496094 L 112.601562 366.15625 Z M 0.632812 233.949219 " clip-rule="nonzero"/></clipPath><clipPath id="d6ffff0cad"><path d="M 120 174 L 189 174 L 189 244 L 120 244 Z M 120 174 " clip-rule="nonzero"/></clipPath><clipPath id="7538222f5b"><path d="M 0.632812 233.949219 L 275.351562 1.289062 L 387.316406 133.496094 L 112.601562 366.15625 Z M 0.632812 233.949219 " clip-rule="nonzero"/></clipPath><clipPath id="76498f0d98"><path d="M 0.632812 233.949219 L 275.351562 1.289062 L 387.316406 133.496094 L 112.601562 366.15625 Z M 0.632812 233.949219 " clip-rule="nonzero"/></clipPath><clipPath id="49a1484d65"><path d="M 95 275 L 196 275 L 196 327 L 95 327 Z M 95 275 " clip-rule="nonzero"/></clipPath><clipPath id="577aa5f36c"><path d="M 0.632812 233.949219 L 275.351562 1.289062 L 387.316406 133.496094 L 112.601562 366.15625 Z M 0.632812 233.949219 " clip-rule="nonzero"/></clipPath><clipPath id="2b24909352"><path d="M 0.632812 233.949219 L 275.351562 1.289062 L 387.316406 133.496094 L 112.601562 366.15625 Z M 0.632812 233.949219 " clip-rule="nonzero"/></clipPath><clipPath id="50f39bb588"><path d="M 137 225 L 181 225 L 181 263 L 137 263 Z M 137 225 " clip-rule="nonzero"/></clipPath><clipPath id="839d1bdd1f"><path d="M 0.632812 233.949219 L 275.351562 1.289062 L 387.316406 133.496094 L 112.601562 366.15625 Z M 0.632812 233.949219 " clip-rule="nonzero"/></clipPath><clipPath id="15955ba641"><path d="M 0.632812 233.949219 L 275.351562 1.289062 L 387.316406 133.496094 L 112.601562 366.15625 Z M 0.632812 233.949219 " clip-rule="nonzero"/></clipPath><clipPath id="e934402639"><path d="M 229 186 L 301 186 L 301 259 L 229 259 Z M 229 186 " clip-rule="nonzero"/></clipPath><clipPath id="b774c5d76d"><path d="M 0.632812 233.949219 L 275.351562 1.289062 L 387.316406 133.496094 L 112.601562 366.15625 Z M 0.632812 233.949219 " clip-rule="nonzero"/></clipPath><clipPath id="83d2d9fc2d"><path d="M 0.632812 233.949219 L 275.351562 1.289062 L 387.316406 133.496094 L 112.601562 366.15625 Z M 0.632812 233.949219 " clip-rule="nonzero"/></clipPath><clipPath id="40ddcf4419"><rect x="0" width="367" y="0" height="362"/></clipPath><clipPath id="fa547638e3"><path d="M 180.78125 294 L 694 294 L 694 679.589844 L 180.78125 679.589844 Z M 180.78125 294 " clip-rule="nonzero"/></clipPath><clipPath id="28222f7b4b"><path d="M 326 78.089844 L 707 78.089844 L 707 602 L 326 602 Z M 326 78.089844 " clip-rule="nonzero"/></clipPath></defs><g mask="url(#a4c54e8f8b)"><g transform="matrix(1, 0, 0, 1, 647, 8)"><g clip-path="url(#cd1bf03c1c)"><g clip-path="url(#9591fcb6d9)"><path fill="#1d3d87" d="M 147.4375 34.546875 C 145.914062 34.546875 144.425781 34.664062 142.972656 34.871094 C 141.203125 15.914062 125.257812 1.074219 105.839844 1.074219 C 93.773438 1.074219 83.046875 6.8125 76.222656 15.703125 C 73.488281 14.894531 70.589844 14.457031 67.585938 14.457031 C 54.019531 14.457031 42.519531 23.289062 38.515625 35.527344 C 36.042969 34.882812 33.445312 34.535156 30.777344 34.535156 C 13.886719 34.546875 0.179688 48.242188 0.179688 65.144531 C 0.179688 82.046875 13.886719 95.742188 30.777344 95.742188 L 147.4375 95.742188 C 164.34375 95.742188 178.035156 82.035156 178.035156 65.144531 C 178.035156 48.253906 164.332031 34.546875 147.4375 34.546875 Z M 147.4375 34.546875 " fill-opacity="1" fill-rule="nonzero"/></g></g></g></g><g mask="url(#6ef0cde102)"><g transform="matrix(1, 0, 0, 1, 132, 39)"><g clip-path="url(#9e6a5abe61)"><g clip-path="url(#89f2b698ac)"><path fill="#1d3d87" d="M 33.332031 35.101562 C 34.886719 35.101562 36.40625 35.222656 37.890625 35.433594 C 39.695312 16.082031 55.96875 0.9375 75.792969 0.9375 C 88.109375 0.9375 99.054688 6.796875 106.019531 15.871094 C 108.8125 15.042969 111.773438 14.597656 114.835938 14.597656 C 128.683594 14.597656 140.421875 23.613281 144.511719 36.105469 C 147.03125 35.445312 149.683594 35.089844 152.40625 35.089844 C 169.648438 35.101562 183.636719 49.078125 183.636719 66.332031 C 183.636719 83.585938 169.648438 97.5625 152.40625 97.5625 L 33.332031 97.5625 C 16.078125 97.5625 2.101562 83.574219 2.101562 66.332031 C 2.101562 49.089844 16.089844 35.101562 33.332031 35.101562 Z M 33.332031 35.101562 " fill-opacity="1" fill-rule="nonzero"/></g></g></g></g><g mask="url(#62048c6172)"><g transform="matrix(1, 0, 0, 1, 168, 643)"><g clip-path="url(#35c3ad319a)"><g clip-path="url(#8b7cc236ff)"><g clip-path="url(#fd9beb6a44)"><path fill="#f77045" d="M 0.9375 0.660156 L 563.117188 0.660156 L 563.117188 63.339844 L 0.9375 63.339844 Z M 0.9375 0.660156 " fill-opacity="1" fill-rule="nonzero"/></g></g></g></g></g><g mask="url(#007fe653f1)"><g transform="matrix(1, 0, 0, 1, 533, 244)"><g clip-path="url(#40ddcf4419)"><g clip-path="url(#1c22d8fc58)"><g clip-path="url(#431cf5603e)"><g clip-path="url(#f4045309d5)"><path fill="#3c5a9f" d="M 248.4375 103.886719 C 201.085938 183.929688 134.894531 251.097656 53.144531 295.949219 C 134.191406 249.273438 197.960938 179.144531 242.558594 97.382812 C 244.152344 94.425781 246.757812 93.425781 248.410156 95.191406 C 250.066406 96.953125 250.144531 100.769531 248.558594 103.675781 C 248.523438 103.742188 248.472656 103.824219 248.4375 103.886719 " fill-opacity="1" fill-rule="nonzero"/></g></g></g><g clip-path="url(#5aacb5ffbc)"><g clip-path="url(#6e2a6ec25f)"><g clip-path="url(#150163a6d4)"><g clip-path="url(#82a83c1273)"><path fill="#3c5a9f" d="M 277.863281 13.402344 C 242.792969 104.871094 185.742188 186.125 109.414062 247.8125 C 185.042969 183.542969 239.585938 99.074219 271.980469 5.574219 C 273.128906 2.203125 275.367188 1.160156 277.015625 3.277344 C 278.667969 5.398438 279.101562 9.839844 277.949219 13.160156 C 277.921875 13.234375 277.890625 13.332031 277.863281 13.402344 " fill-opacity="1" fill-rule="nonzero"/></g></g></g></g><g clip-path="url(#57395ad4b0)"><g clip-path="url(#654c57cf55)"><g clip-path="url(#0a949ca0fd)"><path fill="#3c5a9f" d="M 303.273438 137.839844 C 259.679688 207.785156 199.984375 266.234375 126.1875 303.640625 C 199.367188 264.226562 256.648438 202.511719 297.402344 130.609375 C 298.882812 127.957031 301.402344 127.371094 303.054688 129.34375 C 304.707031 131.3125 304.867188 135.050781 303.386719 137.652344 C 303.355469 137.710938 303.308594 137.785156 303.273438 137.839844 " fill-opacity="1" fill-rule="nonzero"/></g></g></g><g clip-path="url(#3e66f4b38b)"><g clip-path="url(#c45e3d6321)"><g clip-path="url(#2e9d9d47e3)"><path fill="#3c5a9f" d="M 345.222656 112.441406 C 307.859375 184.351562 254.015625 246.304688 184.894531 289.164062 C 253.269531 243.105469 303.988281 176.714844 337.726562 102.011719 C 338.96875 99.222656 341.644531 99.253906 343.746094 102.109375 C 345.847656 104.964844 346.5625 109.523438 345.316406 112.246094 C 345.289062 112.304688 345.25 112.382812 345.222656 112.441406 " fill-opacity="1" fill-rule="nonzero"/></g></g></g><g clip-path="url(#c886d2ac6b)"><g clip-path="url(#0ecb537086)"><g clip-path="url(#4a82b18db4)"><path fill="#3c5a9f" d="M 263.550781 211.515625 C 219.179688 259.542969 165.714844 297.59375 104.246094 320.410156 C 164.703125 296.101562 215.78125 255.277344 257.226562 205.386719 C 258.726562 203.558594 261.367188 203.410156 263.140625 205.089844 C 264.914062 206.769531 265.152344 209.605469 263.660156 211.386719 C 263.628906 211.425781 263.582031 211.480469 263.550781 211.515625 " fill-opacity="1" fill-rule="nonzero"/></g></g></g><g clip-path="url(#e167cfc8aa)"><g clip-path="url(#62d35dd6ec)"><g clip-path="url(#9c2c735099)"><path fill="#3c5a9f" d="M 280.125 140.335938 C 234.175781 211.269531 171.824219 270.085938 95.390625 306.921875 C 171.394531 268.949219 232.222656 208.105469 276.328125 136 C 277.917969 133.367188 280.058594 132.148438 281.136719 133.308594 C 282.214844 134.472656 281.828125 137.546875 280.242188 140.148438 C 280.207031 140.207031 280.160156 140.28125 280.125 140.335938 " fill-opacity="1" fill-rule="nonzero"/></g></g></g><g clip-path="url(#471698f08f)"><g clip-path="url(#817b890b9e)"><g clip-path="url(#1797094a81)"><path fill="#3c5a9f" d="M 264.949219 174.753906 C 224.796875 227.078125 175.171875 270.746094 116.609375 301.378906 C 174.664062 269.871094 223.15625 224.925781 261.964844 171.6875 C 263.695312 169.277344 265.78125 167.949219 266.648438 168.746094 C 267.515625 169.546875 266.835938 172.152344 265.109375 174.535156 C 265.058594 174.605469 265 174.6875 264.949219 174.753906 " fill-opacity="1" fill-rule="nonzero"/></g></g></g><g clip-path="url(#42ac4843b7)"><g clip-path="url(#fb1e01a4af)"><g clip-path="url(#ec784f8a3e)"><path fill="#3c5a9f" d="M 273.875 79.050781 C 231.941406 161.1875 170.679688 231.800781 92.664062 281.4375 C 170.097656 229.902344 229.210938 156.550781 268.75 72.761719 C 269.988281 70.101562 272.132812 69.3125 273.570312 71.023438 C 275.007812 72.734375 275.191406 76.265625 273.957031 78.882812 C 273.933594 78.933594 273.898438 79 273.875 79.050781 " fill-opacity="1" fill-rule="nonzero"/></g></g></g><g clip-path="url(#6360c2b625)"><g clip-path="url(#be992a81a1)"><g clip-path="url(#3eb8353ab9)"><path fill="#3c5a9f" d="M 253.644531 135.875 C 218.644531 188.792969 175.015625 234.828125 123.003906 271.269531 C 174.398438 233.738281 216.824219 186.375 250.445312 132.445312 C 251.347656 130.976562 252.800781 130.535156 253.695312 131.46875 C 254.59375 132.398438 254.59375 134.34375 253.695312 135.792969 C 253.679688 135.816406 253.65625 135.851562 253.644531 135.875 " fill-opacity="1" fill-rule="nonzero"/></g></g></g><g clip-path="url(#091aa2d799)"><g clip-path="url(#0f596f9f13)"><g clip-path="url(#b81c0af1be)"><path fill="#3c5a9f" d="M 266.871094 131.566406 C 219.417969 204.992188 154.910156 265.703125 76.230469 304.441406 C 154.601562 264.75 217.871094 202.367188 263.8125 127.90625 C 265.3125 125.449219 267.210938 124.226562 268.082031 125.207031 C 268.953125 126.183594 268.46875 128.972656 266.972656 131.40625 C 266.941406 131.453125 266.898438 131.519531 266.871094 131.566406 " fill-opacity="1" fill-rule="nonzero"/></g></g></g><g clip-path="url(#c59a53aee7)"><g clip-path="url(#293422c022)"><g clip-path="url(#74952cf10a)"><path fill="#3c5a9f" d="M 295.886719 98.933594 C 255.007812 176.121094 196.171875 242.308594 121.3125 287.867188 C 195.707031 240.679688 252.746094 172.117188 291.578125 93.476562 C 292.625 91.324219 294.4375 90.769531 295.644531 92.257812 C 296.847656 93.746094 296.992188 96.691406 295.945312 98.816406 C 295.929688 98.851562 295.902344 98.898438 295.886719 98.933594 " fill-opacity="1" fill-rule="nonzero"/></g></g></g><g clip-path="url(#f00072f96f)"><g clip-path="url(#80e204b518)"><g clip-path="url(#42219262f7)"><path fill="#3c5a9f" d="M 184.535156 238.722656 C 163.398438 257.441406 140.886719 274.160156 116.734375 288.792969 C 140.574219 273.929688 162.722656 256.964844 183.464844 238.019531 C 183.816406 237.691406 184.34375 237.582031 184.640625 237.777344 C 184.941406 237.964844 184.898438 238.386719 184.546875 238.710938 C 184.542969 238.714844 184.539062 238.71875 184.535156 238.722656 " fill-opacity="1" fill-rule="nonzero"/></g></g></g><g clip-path="url(#9850e661aa)"><g clip-path="url(#4ac302abf3)"><g clip-path="url(#14b10a8bf3)"><path fill="#3c5a9f" d="M 240.84375 172.53125 C 222.648438 195.980469 202.691406 217.699219 180.734375 237.679688 C 202.414062 217.371094 222.027344 195.324219 239.847656 171.566406 C 240.148438 171.160156 240.617188 171.039062 240.894531 171.304688 C 241.175781 171.566406 241.15625 172.109375 240.855469 172.515625 C 240.851562 172.519531 240.847656 172.527344 240.84375 172.53125 " fill-opacity="1" fill-rule="nonzero"/></g></g></g><g clip-path="url(#01bce38987)"><g clip-path="url(#08f334f1a5)"><g clip-path="url(#eb0efcc9e8)"><path fill="#3c5a9f" d="M 219.882812 220.082031 C 200.277344 240.042969 179.191406 258.15625 156.363281 274.339844 C 179.050781 258.023438 199.960938 239.765625 219.367188 219.664062 C 219.53125 219.492188 219.78125 219.445312 219.925781 219.558594 C 220.066406 219.671875 220.050781 219.90625 219.886719 220.078125 C 219.882812 220.078125 219.882812 220.078125 219.882812 220.082031 " fill-opacity="1" fill-rule="nonzero"/></g></g></g><g clip-path="url(#69cb5b2d68)"><g clip-path="url(#11dac09684)"><g clip-path="url(#cf32df5cf0)"><path fill="#3c5a9f" d="M 147.566406 237.722656 C 133.019531 250.234375 117.902344 261.894531 102.085938 272.75 C 117.566406 261.695312 132.308594 249.820312 146.460938 237.105469 C 146.835938 236.769531 147.386719 236.625 147.699219 236.792969 C 148.011719 236.957031 147.960938 237.367188 147.589844 237.703125 C 147.582031 237.710938 147.574219 237.71875 147.566406 237.722656 " fill-opacity="1" fill-rule="nonzero"/></g></g></g><g clip-path="url(#585259f382)"><g clip-path="url(#f08a20803e)"><g clip-path="url(#f5375cc308)"><path fill="#3c5a9f" d="M 139.375 215.210938 C 116.363281 237.539062 91.648438 257.691406 65.03125 275.566406 C 91.417969 257.535156 115.851562 237.21875 138.554688 214.734375 C 138.839844 214.449219 139.253906 214.324219 139.484375 214.453125 C 139.710938 214.585938 139.667969 214.921875 139.382812 215.207031 C 139.382812 215.207031 139.378906 215.210938 139.375 215.210938 " fill-opacity="1" fill-rule="nonzero"/></g></g></g><g clip-path="url(#d6ffff0cad)"><g clip-path="url(#7538222f5b)"><g clip-path="url(#76498f0d98)"><path fill="#3c5a9f" d="M 188.015625 174.964844 C 167.519531 199.710938 145.113281 222.503906 120.601562 243.285156 C 144.894531 222.296875 167.035156 199.292969 187.246094 174.351562 C 187.496094 174.039062 187.875 173.917969 188.089844 174.085938 C 188.304688 174.253906 188.273438 174.644531 188.023438 174.957031 C 188.019531 174.960938 188.019531 174.964844 188.015625 174.964844 " fill-opacity="1" fill-rule="nonzero"/></g></g></g><g clip-path="url(#49a1484d65)"><g clip-path="url(#577aa5f36c)"><g clip-path="url(#2b24909352)"><path fill="#3c5a9f" d="M 195.257812 276.542969 C 164.304688 298.089844 131.054688 315.085938 95.089844 326.550781 C 130.9375 315.019531 164.03125 297.925781 194.800781 276.28125 C 195.292969 275.929688 195.792969 275.699219 195.925781 275.769531 C 196.054688 275.84375 195.765625 276.183594 195.273438 276.53125 C 195.269531 276.535156 195.261719 276.539062 195.257812 276.542969 " fill-opacity="1" fill-rule="nonzero"/></g></g></g><g clip-path="url(#50f39bb588)"><g clip-path="url(#839d1bdd1f)"><g clip-path="url(#15955ba641)"><path fill="#3c5a9f" d="M 180.160156 226.796875 C 166.507812 239.625 152.265625 251.652344 137.300781 262.921875 C 152.023438 251.472656 165.996094 239.265625 179.363281 226.261719 C 179.628906 226.003906 180.023438 225.910156 180.246094 226.054688 C 180.46875 226.199219 180.4375 226.527344 180.171875 226.789062 C 180.167969 226.789062 180.164062 226.796875 180.160156 226.796875 " fill-opacity="1" fill-rule="nonzero"/></g></g></g><g clip-path="url(#e934402639)"><g clip-path="url(#b774c5d76d)"><g clip-path="url(#83d2d9fc2d)"><path fill="#3c5a9f" d="M 300.164062 187.980469 C 279.042969 213.960938 255.53125 237.484375 229.367188 258.386719 C 255.242188 237.007812 278.339844 212.984375 298.976562 186.523438 C 299.328125 186.066406 299.882812 186.015625 300.214844 186.414062 C 300.546875 186.8125 300.527344 187.507812 300.175781 187.964844 C 300.171875 187.96875 300.167969 187.976562 300.164062 187.980469 " fill-opacity="1" fill-rule="nonzero"/></g></g></g></g></g></g><g clip-path="url(#fa547638e3)"><path fill="#1d3d87" d="M 303.566406 341.738281 C 302.074219 332.765625 300.878906 322.101562 300.878906 310.738281 C 300.878906 305.554688 301.476562 301.167969 302.570312 297.578125 L 286.625 294.488281 L 286.625 294.390625 C 286.625 294.390625 277.054688 299.472656 277.054688 318.511719 C 277.054688 337.550781 286.625 344.925781 286.625 344.925781 Z M 532.828125 599.003906 C 532.828125 643.359375 568.808594 679.34375 613.167969 679.34375 C 657.523438 679.34375 693.507812 643.359375 693.507812 599.003906 C 693.507812 554.648438 657.523438 518.664062 613.167969 518.664062 C 568.808594 518.664062 532.828125 554.546875 532.828125 599.003906 Z M 637.585938 570.597656 L 628.316406 579.867188 C 624.730469 576.976562 620.242188 575.179688 615.457031 574.683594 L 615.457031 561.625 C 623.929688 562.125 631.507812 565.414062 637.585938 570.597656 Z M 650.445312 595.914062 L 637.289062 595.914062 C 636.691406 590.929688 634.597656 586.542969 631.40625 582.957031 L 640.675781 573.6875 C 646.160156 579.566406 649.746094 587.339844 650.445312 595.914062 Z M 641.472656 623.324219 L 632.203125 614.054688 C 635.195312 610.269531 637.089844 605.484375 637.386719 600.300781 L 650.546875 600.300781 C 650.246094 609.070312 646.855469 617.144531 641.472656 623.324219 Z M 615.359375 623.125 C 620.640625 622.628906 625.425781 620.433594 629.214844 617.144531 L 638.484375 626.515625 C 632.304688 632.195312 624.230469 635.785156 615.359375 636.285156 Z M 585.65625 573.6875 L 594.925781 582.957031 C 591.835938 586.542969 589.742188 591.03125 589.042969 595.914062 L 575.886719 595.914062 C 576.585938 587.339844 580.171875 579.667969 585.65625 573.6875 Z M 610.972656 574.78125 C 606.089844 575.179688 601.703125 577.074219 598.113281 579.964844 L 588.746094 570.597656 C 594.824219 565.414062 602.5 562.125 610.972656 561.625 Z M 587.847656 626.515625 L 597.117188 617.246094 C 600.90625 620.535156 605.691406 622.726562 610.972656 623.226562 L 610.972656 636.285156 C 602.101562 635.785156 594.027344 632.195312 587.847656 626.515625 Z M 575.789062 600.300781 L 588.945312 600.300781 C 589.242188 605.484375 591.136719 610.269531 594.128906 614.054688 L 584.859375 623.324219 C 579.476562 617.144531 576.085938 609.070312 575.789062 600.300781 Z M 180.867188 599.003906 C 180.867188 643.359375 216.847656 679.34375 261.207031 679.34375 C 305.5625 679.34375 341.546875 643.359375 341.546875 599.003906 C 341.546875 554.648438 305.5625 518.664062 261.207031 518.664062 C 216.847656 518.664062 180.867188 554.546875 180.867188 599.003906 Z M 285.625 570.597656 L 276.355469 579.867188 C 272.769531 576.976562 268.28125 575.179688 263.496094 574.683594 L 263.496094 561.625 C 271.96875 562.125 279.546875 565.414062 285.625 570.597656 Z M 298.484375 595.914062 L 285.328125 595.914062 C 284.730469 590.929688 282.636719 586.542969 279.445312 582.957031 L 288.714844 573.6875 C 294.199219 579.566406 297.785156 587.339844 298.484375 595.914062 Z M 289.515625 623.324219 L 280.242188 614.054688 C 283.234375 610.269531 285.128906 605.484375 285.425781 600.300781 L 298.585938 600.300781 C 298.285156 609.070312 294.894531 617.144531 289.515625 623.324219 Z M 263.398438 623.125 C 268.679688 622.628906 273.464844 620.433594 277.253906 617.144531 L 286.523438 626.515625 C 280.34375 632.195312 272.269531 635.785156 263.398438 636.285156 Z M 233.695312 573.6875 L 242.964844 582.957031 C 239.875 586.542969 237.78125 591.03125 237.082031 595.914062 L 223.925781 595.914062 C 224.625 587.339844 228.210938 579.667969 233.695312 573.6875 Z M 259.011719 574.78125 C 254.128906 575.179688 249.742188 577.074219 246.152344 579.964844 L 236.785156 570.597656 C 242.863281 565.414062 250.539062 562.125 259.011719 561.625 Z M 235.886719 626.515625 L 245.15625 617.246094 C 248.945312 620.535156 253.730469 622.726562 259.011719 623.226562 L 259.011719 636.285156 C 250.140625 635.785156 242.066406 632.195312 235.886719 626.515625 Z M 223.828125 600.300781 L 236.984375 600.300781 C 237.28125 605.484375 239.175781 610.269531 242.167969 614.054688 L 232.898438 623.324219 C 227.515625 617.144531 224.125 609.070312 223.828125 600.300781 Z M 223.828125 600.300781 " fill-opacity="1" fill-rule="nonzero"/></g><path fill="#f77045" d="M 188.839844 569.300781 C 188.839844 569.300781 341.445312 599.800781 341.445312 600.101562 L 351.710938 600.101562 L 356.496094 612.460938 C 359.585938 620.535156 367.363281 625.816406 375.933594 625.816406 L 485.578125 625.816406 C 492.457031 625.816406 498.9375 622.429688 502.824219 616.648438 L 514.1875 600 L 710.25 600 C 715.234375 600 719.125 595.8125 718.824219 590.832031 C 716.53125 559.53125 701.179688 458.558594 598.8125 458.558594 C 504.019531 458.558594 505.914062 458.558594 504.117188 458.558594 L 504.117188 536.308594 L 339.253906 536.308594 C 323.804688 405.132812 356 347.121094 356 347.121094 C 356 347.121094 373.042969 345.125 373.042969 318.511719 C 373.042969 291.898438 358.988281 283.722656 358.988281 283.722656 L 335.964844 277.84375 L 321.609375 279.539062 C 321.609375 279.539062 296.988281 277.644531 296.988281 310.339844 C 296.988281 343.03125 306.457031 369.347656 306.457031 369.347656 C 306.457031 369.347656 286.023438 409.316406 288.117188 485.171875 C 288.117188 485.171875 240.972656 475.703125 209.773438 506.902344 C 197.3125 519.363281 187.445312 545.179688 182.859375 558.734375 C 181.164062 563.417969 184.054688 568.304688 188.839844 569.300781 Z M 188.839844 569.300781 " fill-opacity="1" fill-rule="nonzero"/><path fill="#1d3d87" d="M 328.1875 293.492188 C 328.1875 302.5625 335.464844 309.839844 344.535156 309.839844 C 353.605469 309.839844 360.882812 302.5625 360.882812 293.492188 C 360.882812 289.804688 359.6875 286.515625 357.691406 283.824219 C 348.820312 270.367188 337.65625 279.539062 336.960938 279.039062 C 331.777344 281.730469 328.1875 287.214844 328.1875 293.492188 Z M 328.1875 293.492188 " fill-opacity="1" fill-rule="nonzero"/><path fill="#3c5a9f" d="M 347.128906 545.976562 C 347.128906 546.074219 347.226562 545.777344 347.128906 545.976562 L 354.503906 545.976562 C 353.707031 551.058594 353.90625 556.242188 354.902344 560.726562 C 354.902344 560.828125 355 560.628906 355 560.726562 L 480.097656 560.726562 C 488.46875 535.308594 485.480469 514.578125 482.988281 504.308594 C 481.890625 500.125 478.402344 496.933594 474.117188 496.238281 L 427.566406 487.566406 L 426.46875 489.457031 L 425.273438 476.402344 L 417.199219 477.296875 C 415.605469 480.089844 412.816406 484.675781 409.925781 488.164062 C 407.035156 491.652344 379.921875 503.8125 362.078125 509.492188 C 348.421875 513.78125 344.039062 533.117188 347.128906 545.976562 Z M 347.128906 545.976562 " fill-opacity="1" fill-rule="nonzero"/><path fill="#ffde59" d="M 528.042969 149.859375 L 500.429688 161.121094 L 498.539062 152.75 L 526.347656 142.28125 Z M 528.042969 149.859375 " fill-opacity="1" fill-rule="nonzero"/><path fill="#1d3d87" d="M 380.417969 347.519531 C 380.417969 380.113281 411.21875 476.300781 411.21875 476.300781 L 424.378906 478.195312 L 426.667969 489.359375 C 426.667969 489.359375 482.886719 499.328125 484.082031 499.128906 L 479.5 394.066406 C 501.429688 405.828125 527.144531 415.296875 553.359375 415.796875 C 622.636719 416.992188 602.800781 336.355469 602.800781 336.355469 L 550.769531 322.898438 C 433.945312 299.375 410.921875 323.792969 410.921875 323.792969 C 391.582031 317.214844 380.417969 331.269531 380.417969 347.519531 Z M 380.417969 347.519531 " fill-opacity="1" fill-rule="nonzero"/><path fill="#ffde59" d="M 335.964844 277.941406 C 336.660156 279.039062 337.855469 279.738281 339.253906 279.835938 C 340.847656 279.835938 342.839844 279.738281 345.132812 279.140625 C 345.132812 279.140625 336.960938 293.792969 357.691406 283.824219 C 357.691406 283.824219 375.136719 299.972656 393.277344 286.316406 L 401.652344 287.214844 L 401.652344 251.726562 L 394.175781 251.628906 C 390.488281 251.527344 385.800781 251.429688 380.617188 251.429688 C 373.640625 249.035156 367.261719 247.144531 365.367188 247.34375 C 363.875 247.542969 360.683594 248.835938 356.796875 251.128906 C 345.132812 251.128906 335.367188 251.230469 334.167969 251.726562 C 330.980469 253.125 322.804688 270.367188 321.710938 279.539062 Z M 335.964844 277.941406 " fill-opacity="1" fill-rule="nonzero"/><path fill="#f77045" d="M 609.179688 339.046875 L 529.9375 319.210938 C 529.9375 319.210938 498.539062 330.273438 398.859375 288.507812 L 398.761719 251.726562 L 394.074219 251.628906 L 394.375 243.953125 L 473.121094 244.453125 C 474.914062 244.453125 476.410156 243.253906 476.808594 241.5625 L 489.664062 186.238281 L 487.871094 168.796875 C 487.574219 165.605469 489.367188 162.617188 492.355469 161.519531 L 534.917969 144.972656 C 534.917969 144.972656 546.382812 146.769531 543.691406 158.230469 C 543.691406 158.230469 567.714844 160.921875 580.570312 202.886719 C 600.90625 269.570312 609.179688 339.046875 609.179688 339.046875 Z M 609.179688 339.046875 " fill-opacity="1" fill-rule="nonzero"/><path fill="#3c5a9f" d="M 605.292969 313.527344 L 683.539062 302.363281 C 696.796875 300.46875 706.164062 288.210938 704.371094 274.953125 L 689.816406 161.519531 C 688.125 148.660156 676.859375 139.292969 663.902344 140.1875 L 603.296875 144.078125 C 594.527344 144.675781 586.949219 150.15625 583.5625 158.132812 C 575.988281 156.535156 539.804688 150.457031 517.972656 172.285156 C 493.453125 196.804688 510.699219 257.609375 510.699219 257.609375 C 510.699219 257.609375 506.910156 198.300781 525.25 179.960938 C 537.410156 167.800781 558.941406 165.90625 572.296875 190.027344 C 590.339844 222.125 605.292969 313.527344 605.292969 313.527344 Z M 488.070312 169.09375 C 488.070312 169.09375 489.867188 185.742188 489.867188 185.839844 C 485.777344 212.15625 491.757812 254.21875 491.757812 254.21875 C 491.757812 254.21875 469.53125 198.101562 488.070312 169.09375 Z M 502.921875 415.296875 L 546.878906 415.296875 C 578.878906 415.296875 583.960938 410.015625 595.921875 397.953125 C 607.882812 385.992188 644.964844 384.199219 644.964844 415.296875 C 644.964844 446.398438 623.53125 458.660156 606.6875 458.660156 L 503.023438 458.660156 C 497.339844 458.660156 492.757812 454.074219 492.757812 448.390625 L 492.757812 425.566406 C 492.65625 419.882812 497.242188 415.296875 502.921875 415.296875 Z M 502.921875 415.296875 " fill-opacity="1" fill-rule="nonzero"/><g clip-path="url(#28222f7b4b)"><path fill="#1d3d87" d="M 533.523438 318.113281 C 533.722656 318.113281 533.824219 318.113281 534.023438 318.011719 C 555.453125 306.550781 564.425781 282.925781 560.039062 249.636719 C 556.75 224.714844 546.980469 202.785156 546.878906 202.585938 C 546.679688 202.089844 546.082031 201.890625 545.484375 202.089844 C 544.988281 202.289062 544.789062 202.886719 544.988281 203.484375 C 545.085938 203.683594 554.65625 225.3125 557.945312 249.933594 C 562.230469 282.726562 553.859375 305.054688 533.027344 316.21875 C 532.527344 316.519531 532.328125 317.117188 532.625 317.613281 C 532.828125 317.914062 533.125 318.113281 533.523438 318.113281 Z M 511.097656 261.496094 L 398.160156 252.527344 C 397.5625 252.527344 397.164062 252.027344 397.265625 251.429688 C 397.265625 250.832031 397.761719 250.433594 398.363281 250.53125 L 511.296875 259.503906 C 511.894531 259.503906 512.292969 260 512.191406 260.597656 C 512.191406 261.097656 511.695312 261.496094 511.097656 261.496094 C 511.195312 261.496094 511.195312 261.496094 511.097656 261.496094 Z M 338.554688 278.742188 C 338.058594 278.542969 337.855469 277.941406 338.058594 277.445312 C 343.140625 265.285156 357.691406 256.414062 358.292969 256.113281 C 358.789062 255.816406 359.386719 256.015625 359.585938 256.414062 C 359.886719 256.910156 359.6875 257.507812 359.289062 257.707031 C 359.1875 257.808594 344.734375 266.578125 339.851562 278.144531 C 339.652344 278.542969 339.351562 278.742188 338.953125 278.742188 C 338.855469 278.839844 338.65625 278.839844 338.554688 278.742188 Z M 344.4375 279.738281 C 344.039062 279.339844 344.136719 278.742188 344.535156 278.34375 C 344.933594 277.941406 354.902344 269.46875 363.773438 265.285156 C 364.273438 265.085938 364.871094 265.285156 365.070312 265.78125 C 365.269531 266.28125 365.070312 266.878906 364.570312 267.078125 C 355.898438 271.164062 345.832031 279.738281 345.730469 279.835938 C 345.53125 280.035156 345.332031 280.035156 345.132812 280.035156 C 344.933594 280.035156 344.636719 279.9375 344.4375 279.738281 Z M 333.871094 277.144531 C 333.871094 271.664062 336.960938 266.378906 337.855469 264.785156 C 340.949219 259.800781 354.703125 247.042969 364.074219 246.246094 C 373.144531 245.449219 400.851562 256.414062 401.949219 256.910156 C 402.449219 257.109375 402.746094 257.707031 402.546875 258.207031 C 402.347656 258.707031 401.75 259.003906 401.253906 258.804688 C 400.953125 258.707031 372.746094 247.542969 364.273438 248.238281 C 355.898438 249.035156 342.640625 261 339.550781 265.78125 C 338.65625 267.179688 335.863281 272.160156 335.863281 277.046875 C 335.863281 277.644531 335.367188 278.042969 334.867188 278.042969 C 334.367188 278.144531 333.871094 277.742188 333.871094 277.144531 Z M 327.191406 278.144531 C 326.695312 278.042969 326.292969 277.542969 326.394531 277.046875 C 328.1875 266.878906 332.476562 261.597656 332.675781 261.296875 C 332.972656 260.898438 333.671875 260.796875 334.070312 261.199219 C 334.46875 261.496094 334.566406 262.195312 334.167969 262.59375 C 334.167969 262.691406 329.984375 267.777344 328.386719 277.445312 C 328.289062 277.941406 327.890625 278.242188 327.390625 278.242188 C 327.292969 278.144531 327.191406 278.144531 327.191406 278.144531 Z M 417.898438 495.238281 C 417.5 495.238281 417.199219 495.140625 416.902344 494.941406 L 408.925781 490.65625 C 407.832031 490.058594 407.433594 488.761719 408.03125 487.664062 C 408.628906 486.566406 409.925781 486.167969 411.019531 486.765625 L 418.996094 491.054688 C 420.089844 491.652344 420.488281 492.949219 419.890625 494.042969 C 419.394531 494.839844 418.597656 495.238281 417.898438 495.238281 Z M 407.632812 502.617188 C 407.234375 503.214844 406.535156 503.511719 405.9375 503.511719 C 405.4375 503.511719 405.039062 503.414062 404.640625 503.015625 L 396.070312 496.4375 C 395.070312 495.738281 394.972656 494.34375 395.671875 493.347656 C 396.367188 492.347656 397.761719 492.25 398.761719 492.949219 L 407.332031 499.527344 C 408.230469 500.324219 408.328125 501.71875 407.632812 502.617188 Z M 436.140625 515.671875 C 435.742188 515.671875 435.441406 515.574219 435.140625 515.375 L 417.300781 505.707031 C 415.304688 507 412.617188 508.496094 409.625 510.09375 L 423.777344 520.957031 C 424.777344 521.65625 424.875 523.050781 424.179688 524.046875 C 423.777344 524.644531 423.082031 524.945312 422.484375 524.945312 C 421.984375 524.945312 421.585938 524.84375 421.1875 524.445312 L 405.835938 512.683594 C 405.636719 512.582031 405.539062 512.382812 405.4375 512.285156 C 402.746094 513.582031 399.957031 514.675781 397.363281 515.574219 C 396.269531 515.972656 394.871094 516.273438 393.378906 516.769531 C 384.605469 519.261719 369.953125 523.546875 362.179688 532.71875 C 361.78125 533.21875 361.082031 533.515625 360.484375 533.515625 C 359.984375 533.515625 359.488281 533.316406 359.089844 533.019531 C 358.191406 532.21875 358.09375 530.824219 358.890625 529.925781 C 367.5625 519.761719 383.011719 515.273438 392.179688 512.683594 C 393.675781 512.285156 394.972656 511.886719 396.070312 511.488281 C 405.039062 508.597656 416.203125 501.417969 418.398438 500.023438 L 428.265625 484.175781 C 428.863281 483.179688 430.257812 482.878906 431.253906 483.476562 C 432.25 484.074219 432.550781 485.472656 431.953125 486.46875 L 421.785156 502.714844 C 421.6875 502.816406 421.585938 503.015625 421.488281 503.113281 L 437.234375 511.6875 C 438.332031 512.285156 438.730469 513.582031 438.132812 514.675781 C 437.632812 515.175781 436.835938 515.671875 436.140625 515.671875 Z M 354.503906 545.976562 L 439.628906 545.976562 C 439.527344 545.578125 439.527344 545.277344 439.628906 544.878906 C 443.117188 533.21875 451.988281 524.046875 465.046875 518.464844 C 474.8125 514.277344 483.386719 513.582031 483.785156 513.480469 C 484.980469 513.382812 486.078125 514.277344 486.175781 515.472656 C 486.277344 516.671875 485.378906 517.765625 484.183594 517.867188 C 483.882812 517.867188 451.6875 520.855469 444.011719 546.074219 L 484.082031 546.074219 C 483.1875 550.761719 481.992188 555.644531 480.296875 560.828125 L 355 560.828125 C 355 560.726562 354.902344 560.925781 354.902344 560.828125 C 353.90625 556.242188 353.707031 551.058594 354.503906 545.976562 Z M 703.773438 547.96875 C 646.65625 522.550781 646.359375 475.105469 646.359375 474.605469 C 646.359375 473.410156 647.355469 472.414062 648.550781 472.414062 C 649.746094 472.414062 650.746094 473.410156 650.746094 474.605469 C 650.746094 474.707031 650.746094 485.96875 657.523438 500.023438 C 663.703125 512.984375 677.058594 531.125 705.566406 543.882812 C 706.664062 544.378906 707.160156 545.675781 706.664062 546.773438 C 706.265625 547.570312 705.46875 548.070312 704.671875 548.070312 C 704.371094 548.167969 704.070312 548.070312 703.773438 547.96875 Z M 594.527344 169.496094 C 594.425781 168.894531 594.925781 168.398438 595.421875 168.398438 L 675.363281 161.121094 C 675.863281 161.121094 676.460938 161.519531 676.460938 162.019531 C 676.5625 162.617188 676.0625 163.113281 675.5625 163.113281 L 595.621094 170.390625 L 595.523438 170.390625 C 595.023438 170.390625 594.527344 169.992188 594.527344 169.496094 Z M 597.019531 182.453125 C 596.917969 181.855469 597.417969 181.355469 597.914062 181.355469 L 677.855469 174.277344 C 678.453125 174.277344 678.953125 174.675781 678.953125 175.175781 C 679.054688 175.773438 678.554688 176.273438 678.054688 176.273438 L 598.113281 183.347656 L 598.015625 183.347656 C 597.515625 183.449219 597.019531 183.050781 597.019531 182.453125 Z M 356.199219 600.101562 C 356.199219 599.503906 356.695312 599.105469 357.195312 599.105469 L 510.398438 599.105469 C 510.996094 599.105469 511.394531 599.601562 511.394531 600.101562 C 511.394531 600.597656 510.898438 601.097656 510.398438 601.097656 L 357.195312 601.097656 C 356.597656 601.097656 356.199219 600.699219 356.199219 600.101562 Z M 345.433594 560.726562 C 345.433594 560.128906 345.929688 559.730469 346.429688 559.730469 L 503.121094 559.730469 L 503.121094 458.660156 C 503.121094 458.058594 503.621094 457.660156 504.117188 457.660156 C 504.617188 457.660156 505.117188 458.160156 505.117188 458.660156 L 505.117188 560.628906 C 505.117188 561.226562 504.617188 561.625 504.117188 561.625 L 346.429688 561.625 C 345.929688 561.726562 345.433594 561.226562 345.433594 560.726562 Z M 346.730469 531.222656 L 360.382812 531.222656 C 357.292969 535.308594 355.402344 540.59375 354.503906 545.976562 L 347.226562 545.976562 C 347.226562 545.875 347.128906 546.074219 347.128906 545.976562 C 346.03125 541.488281 345.929688 536.308594 346.730469 531.222656 Z M 499.035156 78.589844 C 521.5625 78.886719 533.425781 89.253906 541.699219 102.3125 C 550.96875 117.164062 544.390625 136.898438 527.941406 143.078125 L 487.375 158.429688 C 478.902344 161.621094 469.628906 156.535156 467.738281 147.765625 C 462.355469 122.746094 460.660156 78.089844 499.035156 78.589844 Z M 499.035156 78.589844 " fill-opacity="1" fill-rule="nonzero"/></g><path fill="#f77045" d="M 473.121094 153.347656 C 473.21875 153.347656 473.21875 153.347656 473.320312 153.347656 L 542.296875 126.632812 C 542.59375 126.535156 542.792969 126.132812 542.59375 125.835938 C 542.496094 125.535156 542.097656 125.335938 541.796875 125.535156 L 472.820312 152.25 C 472.519531 152.351562 472.320312 152.75 472.519531 153.046875 C 472.722656 153.246094 472.921875 153.347656 473.121094 153.347656 Z M 477.105469 390.878906 C 476.808594 390.777344 469.132812 388.785156 454.378906 377.421875 C 453.980469 377.121094 453.882812 376.425781 454.179688 376.027344 C 454.480469 375.628906 455.175781 375.527344 455.578125 375.828125 C 465.644531 383.601562 472.421875 386.890625 475.511719 388.1875 L 469.53125 374.132812 C 469.332031 373.632812 469.53125 373.035156 470.03125 372.835938 C 470.527344 372.636719 471.125 372.835938 471.324219 373.335938 L 478.101562 389.480469 C 478.203125 389.78125 478.203125 390.179688 477.902344 390.480469 C 477.703125 390.679688 477.40625 390.777344 477.105469 390.777344 C 477.207031 390.976562 477.105469 390.976562 477.105469 390.878906 Z M 423.082031 477.296875 C 422.882812 476.300781 400.652344 372.9375 398.761719 361.871094 C 396.867188 351.007812 399.257812 335.457031 408.628906 325.089844 C 409.027344 324.691406 409.625 324.691406 410.023438 324.992188 C 410.421875 325.390625 410.421875 325.988281 410.125 326.386719 C 401.152344 336.253906 398.960938 351.207031 400.753906 361.574219 C 402.648438 372.636719 424.875 475.902344 425.074219 476.898438 C 425.175781 477.398438 424.875 477.996094 424.277344 478.09375 C 424.179688 478.09375 424.179688 478.09375 424.078125 478.09375 C 423.578125 478.09375 423.179688 477.796875 423.082031 477.296875 Z M 461.855469 117.261719 C 461.957031 115.570312 463.25 114.074219 465.046875 113.972656 C 474.117188 113.078125 494.25 109.488281 501.828125 108.09375 C 503.519531 107.792969 505.214844 108.691406 505.8125 110.1875 L 510.996094 122.644531 C 511.59375 124.140625 510.996094 125.933594 509.402344 126.734375 C 496.34375 133.410156 475.710938 137.796875 466.941406 139.492188 C 464.945312 139.890625 463.050781 138.496094 462.753906 136.5 C 461.957031 130.320312 461.558594 123.742188 461.855469 117.261719 Z M 277.054688 318.511719 C 277.054688 299.472656 286.625 294.390625 286.625 294.390625 L 286.625 344.925781 C 286.625 344.925781 277.054688 337.550781 277.054688 318.511719 Z M 277.054688 318.511719 " fill-opacity="1" fill-rule="nonzero"/></svg>